<?xml version="1.0" standalone="no"?>
<!DOCTYPE svg PUBLIC "-//W3C//DTD SVG 1.1//EN" "http://www.w3.org/Graphics/SVG/1.1/DTD/svg11.dtd" >
<!--
2013-9-30: Created.
-->
<svg>
<metadata>
Created by iconfont
</metadata>
<defs>

<font id="larry-icon" horiz-adv-x="1024" >
  <font-face
    font-family="larry-icon"
    font-weight="500"
    font-stretch="normal"
    units-per-em="1024"
    ascent="896"
    descent="-128"
  />
    <missing-glyph />
    
    <glyph glyph-name="x" unicode="x" horiz-adv-x="1001"
d="M281 543q-27 -1 -53 -1h-83q-18 0 -36.5 -6t-32.5 -18.5t-23 -32t-9 -45.5v-76h912v41q0 16 -0.5 30t-0.5 18q0 13 -5 29t-17 29.5t-31.5 22.5t-49.5 9h-133v-97h-438v97zM955 310v-52q0 -23 0.5 -52t0.5 -58t-10.5 -47.5t-26 -30t-33 -16t-31.5 -4.5q-14 -1 -29.5 -0.5
t-29.5 0.5h-32l-45 128h-439l-44 -128h-29h-34q-20 0 -45 1q-25 0 -41 9.5t-25.5 23t-13.5 29.5t-4 30v167h911zM163 247q-12 0 -21 -8.5t-9 -21.5t9 -21.5t21 -8.5q13 0 22 8.5t9 21.5t-9 21.5t-22 8.5zM316 123q-8 -26 -14 -48q-5 -19 -10.5 -37t-7.5 -25t-3 -15t1 -14.5
t9.5 -10.5t21.5 -4h37h67h81h80h64h36q23 0 34 12t2 38q-5 13 -9.5 30.5t-9.5 34.5q-5 19 -11 39h-368zM336 498v228q0 11 2.5 23t10 21.5t20.5 15.5t34 6h188q31 0 51.5 -14.5t20.5 -52.5v-227h-327z" />
    

    
    <glyph glyph-name="wangzhanguanli1" unicode="&#59203;" d="M775.372393 317.39424q-32.540218 0-54.403178-22.879841t-21.862959-57.453823l0-270.490566q-38.641509-14.236346-79.316783-21.354518t-84.401192-7.118173q-99.654419 0-186.597815 37.624628t-152.023833 102.196624-102.705065 152.023833-37.624628 187.106256q0 98.637537 37.624628 186.089374t102.705065 152.532274 152.023833 102.705065 186.597815 37.624628q98.637537 0 186.089374-37.624628t152.532274-102.705065 102.705065-152.532274 37.624628-186.089374q0-26.438928-2.542205-51.352532t-7.626614-48.301887l-228.798411 0zM620.806356 284.854022q3.050645 4.067527-3.050645 10.168818t-14.236346 13.727905-14.236346 15.253227-4.067527 15.761668q5.084409 16.270109 10.677259 28.472691t6.101291 20.337637-7.118173 12.202582-28.981132 4.067527q-11.1857 0-18.812314-1.016882t-13.727905-1.525323-12.711023-1.016882-15.761668 0.508441q-14.236346 1.016882-21.862959 5.084409t-14.744786 8.135055-17.286991 7.626614-29.489573 4.575968q-27.455809 1.016882-39.14995 2.033764t-16.77855 2.542205-8.135055 2.033764-12.202582 0.508441-32.540218-8.135055-47.285005-19.320755-42.200596-22.3714-18.303873-18.303873q0-41.692155 8.643496-66.097319t19.829196-35.590864q5.084409-5.084409 13.727905-6.609732t18.812314-2.542205 18.812314-2.542205 13.727905-7.626614q10.168818-12.202582 24.913605-9.660377t28.472691 6.609732 23.896723 3.050645 11.1857-19.320755q0-8.135055 3.050645-12.202582t7.626614-6.609732 11.694141-6.101291 15.253227-10.677259q9.151936-8.135055 6.609732-15.253227t-8.135055-13.727905-10.168818-14.236346 0.508441-14.744786q7.118173-11.1857 15.253227-16.270109t15.761668-9.151936 13.727905-8.643496 8.135055-14.744786q1.016882-3.050645 8.135055-11.694141t13.727905-17.286991 10.677259-15.253227-2.033764-4.575968q12.202582-3.050645 25.930487-3.050645t17.795432 6.101291q2.033764 4.067527 2.033764 3.050645t3.050645 0 15.253227 9.151936 16.270109 21.862959 4.067527 29.489573-1.525323 32.031778 0.508441 30.506455q2.033764 13.219464 6.609732 19.320755t8.135055 10.677259 6.101291 12.711023-0.508441 26.438928q-3.050645 23.388282 6.101291 33.5571t14.236346 18.303873zM738.764647 435.352532q-8.135055 0-3.050645-4.575968t15.761668-8.643496 22.879841-5.084409 20.337637 5.084409q7.118173 7.118173 23.896723 11.1857t34.065541 9.660377 30.506455 15.253227 15.253227 27.96425q1.016882 18.303873-0.508441 34.065541t-6.609732 31.523337-13.727905 32.540218-21.862959 38.133069q-14.236346 22.3714-25.930487 37.116187t-22.879841 25.422046-23.388282 19.320755-28.472691 18.812314q-15.253227 9.151936-31.523337 19.829196t-34.573982 14.236346-39.658391-4.575968-47.793446-35.590864q-8.135055-8.135055-18.812314-18.303873t-22.879841-19.829196-23.896723-15.761668-19.829196-6.101291-25.930487-4.575968-35.082423-15.253227-29.998014-27.96425-11.694141-41.692155q1.016882-27.455809 9.660377-35.590864t22.3714-9.151936 32.540218-2.033764 41.183714-13.219464q25.422046-1.016882 47.793446-5.084409 19.320755-3.050645 39.14995-8.135055t33.048659-13.219464q15.253227-9.151936 12.202582-13.219464t-10.677259-7.118173-12.711023-6.101291 6.101291-11.1857q15.253227-12.202582 22.879841-14.744786t15.761668-1.016882 22.3714 4.575968 43.725919 3.050645zM979.765641 254.347567q17.286991 0 28.472691-11.694141t11.1857-27.96425l0-204.393247q0-7.118173-9.151936-19.320755t-22.3714-23.388282-26.438928-19.829196-21.354518-8.643496l-137.279047 0q-17.286991 0-28.472691 11.1857t-11.1857 27.455809l0 236.933466q0 16.270109 11.1857 27.96425t28.472691 11.694141l176.937438 0zM838.419067 191.300894q-8.135055 0-11.1857-14.236346t-3.050645-22.3714q0-9.151936 3.559086-18.303873t10.677259-9.151936l104.738828 0q4.067527 0 6.609732 4.575968t3.559086 9.660377q1.016882 6.101291 1.016882 14.236346 0 9.151936-2.033764 22.3714t-9.151936 13.219464l-104.738828 0zM953.326713 18.430983q3.050645 12.202582 3.050645 22.3714 0 8.135055-3.559086 15.761668t-13.727905 7.626614l-96.603774 0q-8.135055 0-11.1857-7.626614t-4.067527-15.761668q-1.016882-10.168818 1.016882-22.3714 0-8.135055 6.101291-14.236346t12.202582-6.101291l89.485601 0q8.135055 0 12.711023 6.101291t4.575968 14.236346z"  horiz-adv-x="1024" />

    
    <glyph glyph-name="meng" unicode="&#59012;" d="M205.824 369.664l-98.304 0 0 367.616 108.544 0 220.16 0q12.288 0 23.04-8.192t10.752-22.528l0-236.544q0-19.456-3.584-37.376t-13.312-31.744-28.16-22.528-48.128-8.704l-158.72 0-12.288 0zM275.456 436.224q25.6 0 40.96 7.168t23.552 19.456 11.264 27.648 3.072 32.768l0 6.144-136.192 0 0-4.096 0-89.088 57.344 0zM218.112 668.672l0-78.848 136.192 0 0 78.848-136.192 0zM989.184 117.76l0-75.776-952.32 0 0 75.776 97.28 0 0 222.208 132.096 0 0-22.528q29.696 2.048 63.488 5.12 29.696 2.048 68.608 5.12t82.944 6.144l0 39.936q8.192 3.072 15.36 8.192 6.144 5.12 11.264 11.264t5.12 17.408l0 340.992 123.904 0 0-31.744q145.408 43.008 219.648 27.136t74.24-90.624l0-141.312q0-51.2-4.096-90.624t-27.648-62.976q-27.648-27.648-101.376-27.648 43.008-9.216 67.072-29.184t35.328-42.496 12.288-43.52 0-33.28q-2.048-14.336-3.072-32.256t-3.072-35.328l82.944 0zM573.44 268.288q-27.648-1.024-54.784-1.536t-52.736-2.56l0-146.432 107.52 0 0 150.528zM676.864 117.76l98.304 0q2.048 19.456 4.096 41.984t2.048 40.96q0 15.36-3.072 27.136t-13.824 20.48-31.744 13.824-55.808 7.168l0-151.552zM636.928 524.288l166.912 0 0 48.128-166.912 0 0-48.128zM803.84 660.48q0 12.288-20.48 15.872t-47.616 3.584-55.296-3.072-43.52-5.12l0-36.864 166.912 0 0 25.6zM636.928 462.848q0-23.552-4.096-44.544t-15.36-37.376-32.768-28.16-55.296-15.872q52.224 2.048 102.912 3.584t96.768-0.512q-2.048 1.024-4.608 1.024t-4.608 1.024l25.6 54.272q18.432-1.024 29.696 4.096t17.408 13.312 8.704 19.968 2.56 25.088l0 4.096-166.912 0zM266.24 117.76l92.16 0 0 139.264q-43.008-5.12-67.584-6.144-14.336-1.024-24.576-2.048l0-131.072z"  horiz-adv-x="1024" />

    
    <glyph glyph-name="bianji" unicode="&#59154;" d="M851.3685 611.5578l-50.274 50.2779c-38.2537 38.2561-100.2802 38.2561-138.5369 0l-36.2439-36.2434 188.8159-188.813 36.239 36.2364C889.6232 511.2818 889.6232 573.3087 851.3685 611.5578zM324.6855 136.0362v50.87150911681879l-68.5364 68.5295-4.9798-4.9806c-15.768-15.7643-25.0201-35.5699-27.7903-56.083l-14.5278-49.6463-9.9317-5.913-35.1716-165.0941 186.7602 32.6888 9.508 17.9268 60.2967 18.9541 1.1223 3.8244c6.6008 4.0023 12.8398 8.834 18.5422 14.5361l4.9888 4.9886L375.5611 136.0362H324.685500021986zM283.6686 282.9576l41.0159-41.0122v0.37174795488658685h32.65423190850618v-73.61808693705667h73.61518074504616v-32.66185526213227h-0.3497775414836164l41.8824-41.8776 321.2867 321.2652L604.9513 604.2307 283.6686 282.9576z"  horiz-adv-x="1000" />

    
    <glyph glyph-name="bianji1" unicode="&#59155;" d="M939.3396 661.9226c-15.6231 15.6224-40.952 15.6224-56.573 0L486.7604 265.9331c-15.6231-15.6204-15.6231-40.9482 0-56.5706 15.6211-15.6204 40.95-15.6204 56.571 0l396.0081 395.9895C954.9606 620.9744 954.9606 646.3022 939.3396 661.9226zM792.6369 237.1496c-21.8901 0-39.6378-17.745-39.6378-39.6361v-198.1816328529257c0-21.8912-17.7457-39.6361-39.6378-39.6361H198.06603000491688c-21.8921 0-39.6378 17.745-39.6378 39.6361V633.512878268534c0 21.8892 17.7457 39.6361 39.6378 39.6361h396.379902382085c21.8921 0 39.6378 17.745 39.6378 39.6361 0 21.8892-17.7457 39.6361-39.6378 39.6361H158.4282396395892c-43.7822 0-79.2756-35.4919-79.2756-79.2723v-713.4542779995163c0-43.7803 35.4934-79.2743 79.2756-79.2743h594.5708529375316c43.7842 0 79.2756 35.4939 79.2756 79.2743V197.51348585658923C832.2747 219.4046 814.529 237.1496 792.6369 237.1496z"  horiz-adv-x="1000" />

    
    <glyph glyph-name="QQ" unicode="&#59204;" d="M920.8193 176.5197 917.9541 191.8893 915.6765 199.77 913.461 208.1063 910.5308 216.0839 907.5327 224.9739 904.0819 233.3102 900.3713 241.9723 893.6615 256.0088 887.7333 268.3495 881.8091 279.42 876.6643 289.711 870.7361 299.1226 866.3699 307.7507 857.1897 320.645 845.596 337.7094 842.9237 342.0065 842.0143 343.7993 842.0143 345.1984 843.9661 350.9954 846.6384 356.1729 848.9819 366.365 850.2841 371.5755 850.2841 377.0138 850.9367 381.3768 850.9367 385.7728 850.2841 390.8214 849.5036 394.9236 847.8096 403.291 845.596 411.3675 843.5793 418.8254 840.4523 426.0545 836.8686 432.0785 834.0664 437.8096 830.9414 443.1499 826.0575 451.1605 824.2326 454.0266 823.7129 456.4359 821.4334 471.9044 819.9993 482.0296 818.3713 494.666 815.767 507.6902 811.7286 522.6051 809.451 531.0054 807.6282 538.0736 805.0848 546.311 802.2835 555.0711 799.4164 563.1816 795.7697 571.9076 788.3494 588.7742 783.9842 596.7518 778.7085 605.9036 773.6927 613.7823 768.7418 622.6402 761.7073 630.9126 755.7841 638.8583 748.5517 647.1276 741.1933 654.5526 733.7661 661.8147 724.9756 669.2716 720.3536 671.9748 715.9883 675.7203 706.4794 682.2328 695.5373 689.33 684.2995 695.7787 672.7758 701.5737 660.1398 706.8512 648.2524 711.8977 635.8772 716.2608 622.3978 719.8763 610.0186 723.0991 596.867 725.9002 584.4259 728.8632 571.0084 730.2633 557.8528 731.8592 544.7931 733.4861 505.488 733.4861 492.2354 732.7726 479.7304 731.0777 467.2553 729.3849 454.6533 727.3323 442.1482 725.0198 430.2618 722.1548 418.4423 718.4443 407.4363 714.7298 396.3943 711.1492 385.3253 705.8089 374.9049 701.5737 365.6858 696.4302 356.0469 690.6332 347.1406 684.5773 338.3651 677.8048 331.1337 671.4532 319.8349 661.0652 310.4229 651.3628 301.4536 641.9841 293.1798 632.4086 285.4128 622.6402 278.6571 613.1317 272.0482 603.6231 268.9852 599.358 266.152 594.2445 259.9819 585.1936 255.081 576.2057 250.6998 567.6735 246.9372 558.6846 243.2266 550.4162 240.1345 542.6965 237.2983 534.458 234.4331 526.8372 230.5916 513.0955 227.7904 499.8765 226.2263 488.804 224.6633 479.2305 224.6633 460.703 221.995 457.837 219.5196 454.0266 217.5988 450.5419 215.9209 446.7645 213.8512 438.656 211.5886 431.231 210.7921 424.5246 210.2535 419.6399 210.2535 414.3635 204.9788 406.8735 201.2492 399.3836 198.417 392.2205 196.3153 385.7728 194.7224 379.586 193.1404 373.79 193.1404 359.006 194.0528 355.4244 195.3549 348.7819 196.9839 343.7993 194.0528 341.6168 185.782 335.5609 174.841 325.7585 168.1302 319.9944 161.5684 314.3283 157.0583 309.7694 153.3296 305.7971 145.3687 297.4607 137.7985 289.0594 131.8553 281.8953 124.7538 271.4434 117.9501 262.0307 111.2883 251.6108 105.6059 241.9723 100.9159 231.6823 95.9371 222.1738 92.3044 212.7302 88.4778 202.9618 85.6126 193.4532 82.8104 183.6179 80.336 175.1526 78.9359 166.0029 77.4068 157.5026 76.1037 149.2652 75.3372 133.2111 75.3372 111.5568 76.1037 104.9772 78.1694 93.7758 78.9359 88.8582 80.336 83.8755 82.0289 79.0898 83.6109 75.7371 86.1333 69.5812 88.0691 68.2781 89.2753 65.7069 90.7414 65.0893 92.3044 65.0893 98.9142 65.7069 105.6059 67.3667 111.2883 69.5812 117.1846 73.2947 122.5882 76.8113 127.489 81.2703 132.7667 86.0591 137.2588 90.9427 141.4942 96.48 145.3687 101.4936 149.0004 105.5988 151.2629 110.3836 155.6921 118.2332 157.0583 121.4551 157.8398 123.3768 158.2315 125.5912 159.2729 127.414 160.0724 127.7398 161.5684 128.5213 162.4998 128.5213 162.9056 127.7398 163.6381 127.7398 164.4016 127.414 166.91 116.6693 169.5633 108.0731 173.181 99.0522 176.8097 90.9427 179.8388 82.8332 184.5428 75.7371 187.9786 68.2781 191.8562 61.4717 196.3153 55.5138 199.7202 49.8496 208.7235 39.3287 216.5875 29.8871 224.1267 22.5921 231.6339 16.0135 238.0648 10.903 247.7037 2.5007 251.6112 0.6769 252.8994-1.1468 252.8994-1.9922 251.969-2.7737 251.6112-2.7737 249.6735-3.4253 242.4271-3.9459 235.7353-4.8573 230.0709-5.6398 224.1267-6.8779 218.9989-8.4409 213.8512-10.0038 209.3601-12.3482 205.7933-14.4968 201.2492-15.9288 198.417-18.2103 195.3549-20.034 192.117-22.5723 187.9786-27.6519 186.4486-29.9333 184.5428-32.0179 181.9375-37.2903 180.5054-41.6564 178.8115-46.0184 178.4387-49.9258 178.4387-57.0899 177.7062-60.7064 177.7062-64.32 176.8097-67.9675 176.8097-71.1574 177.7062-74.61 178.4387-77.7359 180.5054-83.7278 181.9375-86.5929 183.7803-89.426 185.782-92.258 187.9786-94.7334 190.9108-97.5365 193.1404-99.8799 199.7202-104.6317 206.282-108.607 213.8512-112.2545 221.995-115.4433 230.5916-118.897 240.1345-121.1105 249.6735-124.2034 259.9819-126.255 270.2394-127.8179 280.8227-129.3169 291.7467-130.8809 313.2881-133.0954 335.5329-133.4851 374.9049-133.4851 384.5438-133.0954 392.8136-132.182 400.7595-131.4974 408.2508-130.8809 420.2342-128.5694 428.8957-126.255 437.1014-124.2034 452.2788-117.9846 459.1155-115.4433 465.7253-112.2545 476.5074-106.2945 486.2732-101.5058 493.5376-97.0148 498.7783-92.258 507.051-93.1694 513.434-93.821 526.0679-94.7334 537.011-94.7334 540.8855-95.4849 544.7931-97.0148 550.9491-99.2293 557.8528-101.5058 571.0084-105.544 584.4259-110.2998 597.5156-114.0113 610.6732-116.6145 624.1876-119.9393 638.1258-121.859 651.3154-123.292 664.601-125.0828 677.0061-126.255 690.2587-127.0365 727.0593-127.0365 738.9138-125.6034 750.5054-125.0828 761.7073-123.292 771.9978-121.1105 782.2882-118.897 792.19-116.6145 796.2914-115.4433 800.8525-114.0113 809.451-110.6566 817.0692-107.1739 824.2326-103.5894 830.9414-99.8799 836.8686-95.4849 839.2131-93.1694 842.0143-89.9476 845.596-85.6815 849.5036-80.4051 850.9367-77.7359 851.5882-75.5214 853.2182-72.6563 853.8658-69.5944 853.8658-66.6644 854.6463-63.6694 853.8658-59.3044 853.2182-55.5939 851.5882-51.2289 850.2841-47.5813 847.8096-43.2193 844.8815-39.181 842.0143-35.7274 838.1708-32.7654 830.2908-26.0879 821.4334-19.6423 812.5091-14.4968 803.131-9.2223 781.6387 1.0667 776.4909 4.1296 775.1248 5.5616 774.2134 6.475 784.5038 16.6341 788.997 21.6807 792.7116 26.3365 799.937 36.4967 806.7787 46.9156 812.5091 56.1973 817.9806 65.0893 825.275 82.8332 830.9414 97.6522 834.72 108.0731 836.8686 111.5568 838.1708 114.3878 840.4523 116.0487 841.3607 116.0487 842.0143 115.691 847.5498 104.9772 852.4997 94.6562 855.9505 88.8582 859.5322 83.8755 863.1179 77.6567 867.674 71.6318 871.5186 67.3667 873.8631 65.0893 876.1426 63.0047 878.2273 61.4717 880.246 60.0087 884.6742 57.8582 886.9528 57.0767 890.5365 57.0767 892.88 57.8582 895.7452 59.2572 898.9352 60.7242 901.6075 63.0047 904.0819 65.7069 906.8851 69.0596 909.0967 71.6318 911.5751 75.7371 913.461 79.0898 915.6765 83.8755 916.8478 87.8828 920.0368 97.6522 922.1215 108.4639 923.6205 120.4467 924.6628 127.414 924.6628 146.9528 923.0998 160.8893Z"  horiz-adv-x="1000" />

    
    <glyph glyph-name="shuaxin2" unicode="&#59130;" d="M632 101.0625c-48.4375-34-105.25-50.9375-163.1875-50.25-7.6875 0.125-15.25 0.6875-22.8125 1.25-3.0625 0.3125-6.125 0.8125-9.1875 1.25-6 0.75-11.8125 1.5-17.625 2.6875-3.5625 0.625-7.125 1.625-10.5625 2.4375-5.6875 1.25-11.3125 2.5-16.875 4.125-2.625 1-5.125 1.8125-7.75 2.875-6.4375 2-12.8125 4.25-18.9375 6.8125-1.375 0.625-2.75 1.125-4.125 1.6875-7.1875 3.3125-14.3125 6.6875-21.25 10.3125-0.25 0.1875-0.625 0.3125-0.875 0.5-23.375 12.875-44.6875 28.6875-63.4375 47.5625-0.3125 0.3125-0.5625 0.6875-0.9375 1-5.8125 5.8125-11.375 11.8125-16.625 18.3125-1.0625 1.3125-2.125 2.625-3.25 4.1875C216.5 203.4375 193.5625 263.75 193.5625 329.3125h73.375L149.625 505.25 32.3125 329.3125h73.25c0-77.0625 24.125-148.5625 64.9375-207.75 0.5-0.875 0.8125-1.8125 1.375-2.5625 4.1875-6.125 8.9375-11.6875 13.4375-17.3125 1.75-2.0625 3.25-4.1875 5.0625-6.5 6.625-8 13.8125-15.625 21.0625-23.125 0.75-0.75 1.375-1.375 2-2.0625 24.5625-24.625 52.25-45.25 82.4375-61.875 0.8125-0.4375 1.5-0.8125 2.4375-1.3125 8.6875-4.6875 17.625-9 26.625-12.9375 2.3125-1 4.5-2 6.6875-2.9375 7.8125-3.3125 15.75-6.0625 23.75-8.8125 3.8125-1.3125 7.5-2.5625 11.375-3.8125 7-2 14.125-3.8125 21.375-5.4375 4.8125-1.125 9.4375-2.375 14.375-3.25 2-0.5 3.875-1.125 5.875-1.3125 6.875-1.25 13.6875-1.875 20.4375-2.6875 2.5-0.4375 4.9375-0.875 7.375-1.125 12.25-1.1875 24.4375-1.9375 36.625-1.9375 74.4375 0 147.1875 22.75 209.5625 66.5 19.875 13.9375 24.75 41.4375 10.875 61.1875C679.25 110.3125 651.875 115.125 632 101.0625M838.625 329.3125c0 76.875-23.8125 148.3125-64.4375 207.1875-0.625 1-1 2.0625-1.5 2.9375-5.25 7.25-10.625 14-16.1875 20.8125-0.625 0.75-1.25 1.625-1.8125 2.5-37.375 45-84.0625 79.9375-136.875 102.75-1.5625 0.625-2.875 1.3125-4.4375 1.9375C604.875 670.9375 596.25 673.9375 587.4375 676.9375 584.4375 677.9375 581.25 679.0625 578.125 680 570.5 682.3125 562.875 684.1875 555.125 686 550.8125 686.9375 546.4375 688.0625 542.125 688.9375 540 689.3125 538.0625 689.9375 535.8125 690.375 530 691.3125 524.3125 691.875 518.5 692.5625 514.4375 693 510.5625 693.625 506.5 694.0625 496.75 695 487.0625 695.375 477.375 695.5625c-1.75 0-3.5 0.25-5.25 0.25-0.3125 0-0.625-0.0625-0.9375-0.125-74.375-0.0625-147-22.5-209.25-66.1875C242.0625 615.625 237.1875 588.1875 251.1875 568.1875 265 548.375 292.5625 543.5 312.5 557.5c48.0625 33.625 104.1875 50.75 161.75 50.1875 8.25-0.0625 16.5-0.4375 24.5-1.25C501.25 606.25 503.625 605.875 506.125 605.5c6.625-0.8125 13.1875-1.6875 19.6875-3.0625 2.8125-0.5 5.6875-1.25 8.375-1.875C540.625 599.125 546.875 597.625 553.0625 595.75 555.125 595.1875 557 594.5 558.875 593.75c7.1875-2.3125 14.1875-4.75 20.9375-7.625C580.5625 585.9375 581.25 585.375 581.9375 585.125c41.0625-17.625 77-44.75 105.125-78.75C687.125 506.25 687.25 506 687.5 505.8125c39.5-48.125 63.25-109.5625 63.3125-176.5h-73.4375l117.5-176 117.1875 176H838.625z"  horiz-adv-x="1000" />

    
    <glyph glyph-name="tuichu" unicode="&#58880;" d="M1000 365 808.9988 188.9987v113.99875H495v124.005h313.99875000000003v113.99875L1000 365zM673.9988 758.9987H97.9975l307.0025-130v-616.00125h268.99875000000003V261.00125h45v-290H405V-200L0-28.9988V800h718.99875v-332.00249999999994h-45V758.99875L673.9988 758.9987zM673.9988 758.9987"  horiz-adv-x="1000" />

    
    <glyph glyph-name="weixinfangxing" unicode="&#59262;" d="M673.4044 378.9273 323.2617 378.9273 553.8463 341.659 306.195 142.0729 681.9634 142.0729 459.9102 187.8689ZM1000.06 647.7489C1000.06 731.8412 931.9006 800 847.81 800H152.24872433843598C68.1594 800 0 731.8412 0 647.7489v-695.5514307270302c0-84.0911 68.1594-152.2474 152.2487-152.2474h695.5612598602237c84.0906 0 152.2512 68.155 152.2512 152.2474V647.7488595654107zM818.5619 356.5183l-128.1445-110.2824 42.6149-273.4245c-8.5352-8.5351-8.6876-8.5351-17.2478-8.5351L493.424 100.981 270.7275-35.7237c-17.0879 0-18.4008 0-18.4008 8.5351l31.5627 273.4245-133.6956 119.6332-44.9233 34.1818v5.191288228916324h115.49842923435324 145.20744724038647l34.1821 58.5956 85.3785 178.2613c8.5327 0 8.5327 0 17.0929 0l93.9324-178.2613 34.1821-58.5956h145.15748252796462 85.42841618107212c8.5315 0 8.5315 1.6726 8.5315-6.8576L818.5619 356.5183z"  horiz-adv-x="1000" />

    
    <glyph glyph-name="qingchuhuancun3" unicode="&#58980;" d="M484.5218 691.2947c-223.9456 0-405.623-181.6708-405.623-405.607S260.5763-119.9173 484.5218-119.9173c224.1394 0 405.624 181.6698 405.624 405.606H484.52184410714784V691.2947021919139zM545.7929 752.5622v-405.60599913258807H951.4149001235214C951.4149 570.8923 769.7384 752.5622 545.7929 752.5622z"  horiz-adv-x="1000" />

    
    <glyph glyph-name="shanchu3" unicode="&#59156;" d="M710.2592 446.9312h-17.056v-428.32640000000004h-56.281600000000005V446.9312H543.1168v-428.32640000000004h-56.281600000000005V446.9312H393.0368v-428.32640000000004h-56.281600000000005V446.9312h-35.8144c-42.3808 0-76.7488 0.6144-76.7488 0v-447.5264c0-41.2032 34.368-74.5984 76.7488-74.5984h409.312c42.3936 0 76.7424 33.3952 76.7424 74.5984V446.9312C787.0016 450.08 752.6528 446.9312 710.2592 446.9312zM823.8656 581.4016H655.6800000000001v45.772800000000004c0 26.528-47.4112 48.0256-75.0464 48.0256h-150.08c-27.6224 0-75.04-21.4976-75.04-48.0256v-45.772800000000004H187.36c-21.1008 0-38.2016-16.8-38.2016-37.5232 0-20.7168 17.0944-37.5168 38.2016-37.5168h636.5056c21.0816 0 38.176 16.8 38.176 37.5168C862.0352 564.6016 844.9408 581.4016 823.8656 581.4016zM580.64 581.4016h-150.08V600.16h150.08V581.4016z"  horiz-adv-x="1024" />

    
    <glyph glyph-name="xiazai2" unicode="&#59021;" d="M399.0241 459.1388c0 0-54.6355 52.5507-128.7711 9.6297-66.3347-40.9713-54.6222-115.9598-54.6222-115.9598s-147.3536-28.6269-147.3536-178.8559c3.3085-150.017 160.0328-151.5264 160.0328-151.5264l312.2493 0.4731L395.6869 153.8506l80.2765-0.8724 0.0133 158.6668 102.9161 0.7004 0.7373-158.9309 78.4292-1.1151L540.5594 22.4264h264.269824c0 0 145.8606-0.1485 166.3457 142.5623 9.7567 156.0791-140.9823 186.8421-140.9823 186.8421s17.153 231.0472-194.5272 257.3865C454.2259 627.7496 399.0241 459.1388 399.0241 459.1388z"  horiz-adv-x="1024" />

    
    <glyph glyph-name="shanchu4" unicode="&#59157;" d="M818.687 608.0069H626.024448v37.076992c0 17.2134-14.0503 31.1747-31.3958 31.1747H429.51168000000007c-17.3466 0-31.3979-13.9612-31.3979-31.1747v-37.076992H206.522368c-17.3466 0-35.8287-12.3361-35.8287-34.5375 0-23.8705 18.4822-33.7357 35.8287-33.7357h8.551424v-568.741888c0-27.4125 15.5433-46.7405 47.0958-46.7405h498.732032c32.2212 0 47.0968 12.6034 47.0968 46.7405V539.7337600000001h10.688512000000001c17.3466 0 35.2717 8.6405 35.2717 33.068C853.9587 598.2984 836.0335 608.0069 818.687 608.0069zM740.1923-7.9649H283.902976V539.756288h456.28928V-7.964927999999986zM397.4011 84.2893c12.5153 0 22.6693 10.155 22.6693 22.6693V426.636032c0 12.5368-10.154 22.6908-22.6693 22.6908-12.5368 0-22.6908-10.154-22.6908-22.6908v-319.67744C374.7113 94.4443 384.8653 84.2893 397.4011 84.2893zM511.4122 84.2893c12.5153 0 22.6703 10.155 22.6703 22.6693V426.636032c0 12.5368-10.155 22.6908-22.6703 22.6908-12.5358 0-22.6898-10.154-22.6898-22.6908v-319.67744C488.7224 94.4443 498.8764 84.2893 511.4122 84.2893zM625.4244 84.2893c12.5143 0 22.6683 10.155 22.6683 22.6693V426.636032c0 12.5368-10.154 22.6908-22.6683 22.6908-12.5368 0-22.6918-10.154-22.6918-22.6908v-319.67744C602.7325 94.4443 612.8876 84.2893 625.4244 84.2893z"  horiz-adv-x="1024" />

    
    <glyph glyph-name="shibaifujianshangchuan" unicode="&#59022;" d="M426.5738 170.5592h170.12121599999998V555.404032H426.57382400000006V170.55923200000007zM511.404 811.3559c-282.4387 0-511.4051-228.9664-511.4051-511.4061 0-282.4387 228.9664-511.4051 511.4051-511.4051 282.4397 0 511.4061 228.9664 511.4061 511.4051C1022.8101 582.3895 793.8447 811.3559 511.404 811.3559zM511.529-125.1238c-234.753 0-425.0317 190.3196-425.0317 425.0737 0 234.7561 190.2787 425.0337 425.0317 425.0337 234.7561 0 425.0757-190.2776 425.0757-425.0337C936.6047 65.1958 746.284-125.1238 511.529-125.1238zM426.5738 0.8517h170.12121599999998V128.41241600000012H426.57382400000006V0.8517120000000205z"  horiz-adv-x="1024" />

    
    <glyph glyph-name="rizhi" unicode="&#58881;" d="M772.096 726.24l0-48.128c6.272-10.176 9.792-22.08 9.792-34.816 0-36.672-29.632-66.496-66.368-66.496-36.672 0-66.496 29.76-66.496 66.496 0 12.736 3.712 24.768 9.856 34.816L658.88 726.24 569.28 726.24l0-48.128c6.272-10.176 10.048-22.08 10.048-34.816 0-36.672-29.824-66.496-66.624-66.496-36.8 0-66.56 29.76-66.56 66.496 0 12.736 3.712 24.768 9.856 34.816L456 726.24l-89.6 0 0-48.128c6.336-10.176 9.92-22.08 9.92-34.816 0-36.672-29.824-66.496-66.496-66.496S243.392 606.56 243.392 643.232c0 12.736 3.648 24.768 9.92 34.816L253.312 726.24 191.616 726.24l0-658.176 15.808-15.68 196.224-196.288 428.672 0L832.32 726.24 772.096 726.24zM778.56-90.272 474.176-90.272c-79.936 0-41.408 189.696-41.408 189.696s-184.832-44.928-187.264 39.808L245.504 526.048l533.12 0L778.624-90.272zM731.712 356.64 304.704 356.64l0-66.176 426.944 0L731.648 356.64zM731.712 468 304.704 468l0-66.176 426.944 0L731.648 468zM731.712 245.408 304.704 245.408l0-66.112 426.944 0L731.648 245.408zM715.648 604.448c18.176 0 33.024 14.784 33.024 33.216L748.672 730.08c0 18.304-14.72 33.088-33.024 33.088-18.432 0-33.152-14.72-33.152-33.088l0-92.48C682.496 619.296 697.216 604.448 715.648 604.448zM309.888 604.448c18.304 0 33.088 14.784 33.088 33.216L342.976 730.08c0 18.304-14.784 33.088-33.088 33.088S276.864 748.384 276.864 730.08l0-92.48C276.864 619.296 291.648 604.448 309.888 604.448zM512.768 604.448c18.304 0 33.152 14.784 33.152 33.216L545.92 730.08c0 18.304-14.784 33.088-33.152 33.088S479.616 748.384 479.616 730.08l0-92.48C479.552 619.296 494.464 604.448 512.768 604.448z"  horiz-adv-x="1024" />

    
    <glyph glyph-name="guanbi" unicode="&#59142;" d="M286.062199 27.536883l-45.306914 45.311435c-12.511788 12.511788-12.511788 32.801907-0.00226 45.309174l181.238958 181.238958-181.236698 181.232177c-12.511788 12.514049-12.511788 32.801907 0 45.313695l45.306914 45.306914c12.514049 12.509528 32.797386 12.509528 45.311435-0.00226l181.232177-181.236698 181.236698 181.234437c12.511788 12.514049 32.801907 12.511788 45.311435 0l45.313695-45.311435c12.505007-12.505007 12.507267-32.797386-0.004521-45.306914l-181.234437-181.234437 181.236698-181.236698c12.509528-12.507267 12.507267-32.797386 0.00226-45.306914l-45.313695-45.309174c-12.509528-12.514049-32.797386-12.514049-45.309174 0l-181.234437 181.234437-181.236698-181.236698C318.859585 15.022834 298.576247 15.022834 286.062199 27.536883z"  horiz-adv-x="1024" />

    
    <glyph glyph-name="exit" unicode="&#58924;" d="M1024 288l-256 256v-192h-416c-17.672 0-32-14.328-32-32v-64c0-17.672 14.328-32 32-32h416v-192l256 256zM609 32h-64c-17.672 0-32-14.328-32-32v-97h-384v768h384v-96c0-17.672 14.328-32 32-32h64c17.672 0 32 14.328 32 32v192c0 17.672-14.328 32-32 32h-578c-16.568 0-30-13.432-30-30v-964c0-16.568 13.432-30 30-30h516c2.618 0 5.144 0.37 7.564 1h54.436c17.672 0 32 14.328 32 32v192c0 17.672-14.328 32-32 32z"  horiz-adv-x="1024" />

    
    <glyph glyph-name="xiazai" unicode="&#58961;" d="M859.990016 177.90336l0-139.674624c0-39.171072-30.993408-70.9376-69.229568-70.9376L236.429312-32.708864c-38.23616 0-69.229568 31.766528-69.229568 70.9376L167.199744 177.90336l-101.376 0 0-173.45024c0-78.331904 68.68992-141.860864 145.16224-141.860864l617.2416 0c76.473344 0 138.464256 63.52896 138.464256 141.860864L966.69184 177.90336 859.990016 177.90336zM754.766848 428.356352l-135.146496-1.11104L618.540032 745.292544 409.6256 745.292544l0-318.047232L274.47296 427.245312l240.146432-319.127552L754.766848 428.356352z"  horiz-adv-x="1024" />

    
    <glyph glyph-name="zhuye" unicode="&#59023;" d="M603.2-124c-10.304 0-18.688 8.384-18.688 18.752L584.512 183.712 437.44 183.712l0-288.96c0-10.368-8.384-18.752-18.816-18.752-10.24 0-18.624 8.384-18.624 18.752L400 202.528c0 10.304 8.384 18.624 18.624 18.624l184.576 0c10.432 0 18.752-8.32 18.752-18.624l0-307.776C621.952-115.616 613.632-124 603.2-124zM212.032-124 212.032-124c-10.368 0-18.752 8.384-18.752 18.752l0.704 399.68L83.072 294.432c-7.808 0-14.848 4.928-17.536 12.352C62.784 314.208 65.024 322.464 71.168 327.52l426.56 352.192c6.976 5.632 16.768 5.696 23.744 0.128l431.488-347.264c6.208-4.992 8.512-13.312 5.888-20.736-2.496-7.552-9.664-12.544-17.536-12.544l-115.264 0 0-404.608c0-10.368-8.384-18.752-18.752-18.752-10.24 0-18.688 8.384-18.688 18.752L788.608 318.048c0 10.304 8.448 18.688 18.688 18.688l80.96 0L509.888 641.184 135.104 331.744l77.504 0c5.056 0 9.856-1.92 13.248-5.376 3.584-3.584 5.44-8.256 5.44-13.248l-0.512-418.368C230.784-115.68 222.4-124 212.032-124zM807.296-124 212.032-124c-10.304 0-18.752 8.384-18.752 18.752 0 10.304 8.448 18.688 18.752 18.688l595.264 0c10.368 0 18.752-8.384 18.752-18.688C826.048-115.616 817.664-124 807.296-124z"  horiz-adv-x="1024" />

    
    <glyph glyph-name="tianjia" unicode="&#59024;" d="M511.288-155.501c-248.652 0-450.247 201.616-450.247 450.267 0 248.7 201.595 450.286 450.247 450.286 248.689 0 450.306-201.586 450.306-450.286 0-248.651-201.616-450.267-450.306-450.267v0zM531.737 462.442v57.487h-40.897v-204.674h-204.676v-40.95h204.675v-204.643h40.897v204.644h204.695v40.95l-204.694 0v147.186z"  horiz-adv-x="1024" />

    
    <glyph glyph-name="cuowu" unicode="&#58983;" d="M512 896C229.23 896 0 666.77 0 384s229.23-512 512-512c282.768 0 512 229.23 512 512C1024 666.77 794.77 896 512 896zM746.76 239.748c7.808-7.808 7.806-20.472 0.002-28.284l-62.228-62.224c-7.808-7.808-20.47-7.814-28.286-0.002L512 293.49l-144.25-144.25c-7.81-7.812-20.474-7.808-28.284 0l-62.226 62.224c-7.81 7.808-7.812 20.472 0 28.284L421.492 384l-144.25 144.25c-7.81 7.808-7.81 20.474 0 28.284l62.226 62.224c7.81 7.812 20.474 7.81 28.284 0L512 474.51l144.252 144.25c7.806 7.812 20.47 7.81 28.282 0l62.226-62.224c7.806-7.812 7.808-20.474 0-28.284L602.51 384 746.76 239.748z"  horiz-adv-x="1024" />

    
    <glyph glyph-name="hetongguanli" unicode="&#58933;" d="M245.128-185.322 245.128 544.582l0 60.822 482.62 0 241.321 0 0-60.822 0-729.904L245.128-185.322 245.128-185.322zM848.427 483.76 607.104 483.76 365.789 483.76l0-60.823 241.315 0 241.322 0L848.426 483.76zM848.427 362.115 365.789 362.115l0-60.84 482.638 0L848.427 362.115zM848.427 240.451 365.789 240.451l0-60.821 482.638 0L848.427 240.451zM848.427 118.809 365.789 118.809l0-60.823 482.638 0L848.427 118.809zM848.427-2.838 546.781-2.838 365.789-2.838l0-60.84 180.992 0 301.646 0L848.427-2.838zM727.748 787.889l0-121.663L184.807 666.226l0-60.822 0-547.419 0-60.823L57.566-2.838l0 60.823L57.566 787.889"  horiz-adv-x="1024" />

    
    <glyph glyph-name="wendang" unicode="&#59025;" d="M761.35936 730.502912l0-152.973312c0-29.314048 23.76192-53.091328 53.075968-53.091328l144.813056 0L761.35936 730.502912zM776.977408 486.973184c-29.329408 0-53.083136 23.778304-53.083136 53.091328L723.894272 730.502912 118.494208 730.502912c-29.329408 0-53.091328-23.778304-53.091328-53.107712l0-755.50208c0-29.305856 23.76192-53.091328 53.091328-53.091328l787.670016 0c29.330432 0 53.08416 23.785472 53.08416 53.091328L959.248384 486.973184 776.977408 486.973184zM847.952896-28.173568 176.70656-28.173568c-18.11456 0-32.78336 14.676992-32.78336 32.78336 0 18.11456 14.6688 32.791552 32.78336 32.791552l671.246336 0c18.091008 0 32.78336-14.676992 32.78336-32.791552C880.735232-13.496576 866.043904-28.173568 847.952896-28.173568zM847.952896 159.154944 176.70656 159.154944c-18.11456 0-32.78336 14.6688-32.78336 32.78336 0 18.11456 14.6688 32.784384 32.78336 32.784384l671.246336 0c18.091008 0 32.78336-14.6688 32.78336-32.784384C880.735232 173.823744 866.043904 159.154944 847.952896 159.154944zM847.952896 346.482432 176.70656 346.482432c-18.11456 0-32.78336 14.6688-32.78336 32.78336 0 18.106368 14.6688 32.78336 32.78336 32.78336l671.246336 0c18.091008 0 32.78336-14.676992 32.78336-32.78336C880.735232 361.152256 866.043904 346.482432 847.952896 346.482432zM244.825088 576.237312c0-20.994048-17.005568-38.016-38.016-38.016-20.985856 0-38.016 17.021952-38.016 38.016 0 20.985856 17.030144 38.016 38.016 38.016C227.81952 614.253312 244.825088 597.224192 244.825088 576.237312zM432.145408 576.237312c0-20.994048-17.01376-38.016-38.007808-38.016-20.994048 0-38.016 17.021952-38.016 38.016 0 20.985856 17.021952 38.016 38.016 38.016C415.131648 614.253312 432.145408 597.224192 432.145408 576.237312zM619.47392 576.237312c0-20.994048-17.021952-38.016-38.016-38.016-20.985856 0-38.016 17.021952-38.016 38.016 0 20.985856 17.030144 38.016 38.016 38.016C602.451968 614.253312 619.47392 597.224192 619.47392 576.237312z"  horiz-adv-x="1024" />

    
    <glyph glyph-name="liebiao" unicode="&#58882;" d="M284.233143 578.016c14.262857 0 26.331429-4.827429 36.278857-14.482286 9.910857-9.691429 14.884571-21.650286 14.884571-35.876571L335.396571 488.708571c0-14.262857-4.973714-26.331429-14.884571-36.242286-9.910857-9.910857-22.016-14.884571-36.278857-14.884571L243.821714 437.581714c-13.714286 0-25.563429 4.973714-35.474286 14.884571C198.4 462.377143 193.426286 474.482286 193.426286 488.708571L193.426286 527.620571c0 14.262857 4.973714 26.221714 14.884571 35.876571 9.910857 9.654857 21.76 14.482286 35.474286 14.482286L284.233143 577.979429 284.233143 578.016zM807.862857 578.016c13.750857 0 25.563429-4.827429 35.510857-14.482286 9.910857-9.691429 14.848-21.650286 14.848-35.876571L858.221714 488.708571c0-14.262857-4.937143-26.331429-14.848-36.242286-9.910857-9.910857-21.76-14.884571-35.510857-14.884571l-325.924571 0c-14.262857 0-26.331429 4.973714-36.278857 14.884571C435.785143 462.377143 430.811429 474.482286 430.811429 488.708571L430.811429 527.620571c0 14.262857 4.973714 26.221714 14.884571 35.876571 9.910857 9.654857 22.016 14.482286 36.278857 14.482286L807.862857 577.979429 807.862857 578.016zM284.233143 340.630857c14.262857 0 26.331429-4.973714 36.278857-14.884571 9.910857-9.910857 14.884571-22.016 14.884571-36.242286l0-38.912c0-13.714286-4.973714-25.563429-14.884571-35.510857-9.910857-9.910857-22.016-14.848-36.278857-14.848L243.821714 200.233143c-13.714286 0-25.563429 4.937143-35.474286 14.848-9.910857 9.910857-14.884571 21.796571-14.884571 35.510857l0 38.912c0 14.262857 4.973714 26.331429 14.884571 36.242286 9.910857 9.910857 21.76 14.884571 35.474286 14.884571L284.233143 340.630857 284.233143 340.630857zM807.862857 340.630857c13.750857 0 25.563429-4.973714 35.510857-14.884571 9.910857-9.910857 14.848-22.016 14.848-36.242286l0-38.912c0-13.714286-4.937143-25.563429-14.848-35.510857s-21.76-14.848-35.510857-14.848l-325.924571 0c-14.262857 0-26.331429 4.937143-36.278857 14.848-9.910857 9.910857-14.884571 21.796571-14.884571 35.510857l0 38.912c0 14.262857 4.973714 26.331429 14.884571 36.242286 9.910857 9.910857 22.016 14.884571 36.278857 14.884571L807.862857 340.630857 807.862857 340.630857zM284.233143 102.514286c14.262857 0 26.331429-4.973714 36.278857-14.884571 9.910857-9.910857 14.884571-21.76 14.884571-35.474286l0-38.912c0-14.299429-4.973714-26.368-14.884571-36.278857-9.910857-9.910857-22.016-14.848-36.278857-14.848L243.821714-37.883429c-13.714286 0-25.563429 4.937143-35.474286 14.848-9.910857 9.910857-14.884571 22.016-14.884571 36.278857l0 38.912c0 13.714286 4.973714 25.563429 14.884571 35.474286 9.910857 9.910857 21.76 14.884571 35.474286 14.884571L284.233143 102.514286 284.233143 102.514286zM807.862857 102.514286c13.750857 0 25.563429-4.973714 35.510857-14.884571 9.910857-9.910857 14.848-21.76 14.848-35.474286l0-38.912c0-14.299429-4.937143-26.368-14.848-36.278857s-21.76-14.848-35.510857-14.848l-325.924571 0c-14.262857 0-26.331429 4.937143-36.278857 14.848-9.910857 9.910857-14.884571 22.016-14.884571 36.278857l0 38.912c0 13.714286 4.973714 25.563429 14.884571 35.474286 9.910857 9.910857 22.016 14.884571 36.278857 14.884571L807.862857 102.514286 807.862857 102.514286zM807.862857 102.514286"  horiz-adv-x="1024" />

    
    <glyph glyph-name="shanchu5" unicode="&#59159;" d="M956.672 585.248c-12.864-13.248-29.12-30.208-48.832-50.88s-41.728-43.52-66.24-68.288c-24.512-24.896-51.008-51.584-79.488-80.128-28.48-28.48-57.6-57.664-87.296-87.552l91.52-94.4c28.928-29.824 56.448-57.856 82.56-84.416 26.048-26.56 49.728-50.88 71.04-73.344 21.248-22.336 39.104-40.896 53.568-55.808 20.864-21.504 31.488-44.992 31.936-70.272 0.448-25.152-10.176-48.576-31.936-70.08-1.536-0.96-4.352-3.136-8.384-6.848s-8.256-7.68-12.672-11.84-8.832-7.872-13.248-11.136c-4.416-3.328-6.976-5.376-7.808-6.208-20.864-16.64-42.56-21.76-65.088-15.552s-43.392 18.816-62.656 37.888c-13.696 14.08-30.72 31.424-51.2 52.16-20.48 20.608-43.392 44.032-68.608 70.144-25.344 25.984-52.608 54.016-81.92 83.776-29.312 29.952-59.2 60.416-89.664 92.032-36.928-37.248-72.512-73.088-106.624-107.456-34.112-34.304-64.896-65.28-92.16-92.544-27.264-27.2-50.176-50.368-68.672-69.44l-37.312-38.592c-19.264-20.608-38.592-32.064-57.792-34.112-19.264-2.048-40.96 5.12-65.088 21.76-4.8 3.392-13.248 10.56-25.344 21.696-12.032 11.2-21.312 20.864-27.712 29.248-14.464 21.504-21.504 42.752-21.12 63.936 0.384 20.992 11.008 42.368 31.936 63.872 4.032 4.096 14.848 15.104 32.512 32.896 17.664 17.792 40.32 40.896 68.096 68.928 27.712 28.096 59.008 60.032 93.952 95.616 34.944 35.584 71.68 73.216 110.208 113.088-35.328 36.352-69.248 71.168-101.76 104.32C212.864 440.736 183.36 470.56 156.864 497.056L91.84 566.56C73.344 584.8 60.48 597.28 53.312 603.872 44.48 613.024 36.416 622.88 29.184 633.696 21.952 644.448 16.512 655.648 12.928 667.168 9.344 678.816 8.32 690.656 9.92 702.624 11.52 714.592 16.768 726.432 25.536 738.016 26.368 739.68 29.184 743.008 33.984 748l34.944 35.968c23.296 21.504 49.984 28.544 80.064 21.12 30.08-7.488 60.416-26.944 90.944-58.368C269.632 715.232 308.16 675.04 355.584 626.272l154.176-158.976 284.224 293.056c21.632 22.4 46.144 36.416 73.408 42.304 27.328 5.76 51.008 2.432 71.04-9.984 4.032-2.496 9.024-6.464 15.04-11.84 6.08-5.312 12.032-11.328 18.048-17.92 6.016-6.656 11.904-13.504 17.472-20.48 5.632-7.04 9.984-12.992 13.248-17.984 14.464-26.56 16.256-50.112 5.44-70.784C996.928 632.864 979.904 610.144 956.672 585.248L956.672 585.248zM956.608 585.248"  horiz-adv-x="1024" />

    
    <glyph glyph-name="icon" unicode="&#59160;" d="M509.148 843.681c-261.855 0-474.112-212.287-474.112-474.112 0-261.827 212.257-474.112 474.112-474.112 261.854 0 474.112 212.285 474.112 474.112 0 261.825-212.258 474.112-474.112 474.112zM718.25 516.396l-148.101-148.161 133.285-145.323c17.363-17.364 17.363-45.548 0-62.913-17.362-17.302-45.548-17.302-62.852 0l-133.315 145.383-144.456-144.457c-17.362-17.302-45.402-17.302-62.736 0-17.305 17.306-17.305 45.433 0 62.739l147.205 147.174-133.286 145.381c-17.363 17.364-17.363 45.491 0 62.823 17.363 17.393 45.519 17.393 62.881 0l133.288-145.353 145.409 145.382c17.335 17.306 45.374 17.306 62.738 0 17.245-17.305 17.245-45.374-0.060-62.679z"  horiz-adv-x="1024" />

    
    <glyph glyph-name="duanxin" unicode="&#58984;" d="M512.0256 747.921152c-247.411712 0-448.032768-200.557568-448.032768-448.014336 0-247.400448 200.62208-448.017408 448.032768-448.017408 247.468032 0 448.032768 200.61696 448.032768 448.017408C960.058368 547.363584 759.493632 747.921152 512.0256 747.921152zM773.378048 113.173248 250.702848 113.173248 250.702848 362.268416 433.472512 235.561728c23.307264-15.927296 51.01568-22.806528 78.553088-22.926336 27.419648 0.059392 55.098368 6.99904 78.462976 22.926336l182.889472 126.706688L773.378048 113.173248zM773.378048 434.956032 556.47744 284.678912c-10.643456-7.46496-27.47392-12.367872-44.45184-12.30848-17.122304-0.059392-33.953792 4.84352-44.512256 12.30848L250.702848 434.89664l0 51.740672 522.6752 0L773.378048 434.956032z"  horiz-adv-x="1024" />

    
    <glyph glyph-name="shuaxin3" unicode="&#59132;" d="M524.032-116c-67.136 0-133.888 16.256-193.152 46.912l44.16 85.248C421.312-7.84 471.488-20 524.032-20c178.624 0 323.968 145.344 323.968 323.968 0 178.688-145.344 323.968-323.968 323.968-178.688 0-323.968-145.344-323.968-323.968 0 0-1.984-14.016-46.016-14.016S104 303.968 104 303.968c0 231.616 188.416 419.968 419.968 419.968 231.552 0 419.968-188.416 419.968-419.968C944 72.416 755.584-116 524.032-116zM315.968-143.648 190.016 65.248 433.408 81.312Z"  horiz-adv-x="1024" />

    
    <glyph glyph-name="liuyan" unicode="&#59084;" d="M259.456-167.328l223.104 207.296 470.08 0c0 0 65.984-10.624 65.984 81.856l0 252.16L4.608 373.984l0-256.128c0 0-7.936-76.608 63.36-76.608l188.8-1.28L259.456-167.328zM1018.624 374.048l-252.16 0c0 0 47.552-13.056 46.208 47.616 0 0-2.624 48.704-46.208 48.704 0 0-48.832-1.152-48.832-48.768L717.632 752.928l220.416 0c0 0 80.576 10.56 80.576-75.264L1018.624 374.048zM766.464 374.048c0 0-48.832-11.776-48.832 47.552L717.632 752.928 638.4 752.928l0-316.864c0 0 13.184-62.016-38.272-62.016L766.464 374.048zM600.128 470.368c0 0 41.28-1.152 39.744-48.704L638.4 752.928 600.128 752.928 600.128 470.368zM600.128 470.368c0 0-52.864 5.504-54.144-48.704 0 0-5.376-47.616 54.144-47.616L424.512 372.832c0 0 51.456-7.872 52.8 48.832 0 0 0 47.744-52.8 48.896 0 0-39.616-1.344-39.616-48.896L384.896 753.312l215.232-0.384L600.128 470.368zM384.896 421.6c0 0-6.592-49.088 39.616-48.832L260.736 372.768c0 0 46.208-11.84 46.208 48.832 0 0 3.968 44.8-46.208 46.08 0 0-47.552 1.472-50.176-46.08L210.56 753.312l174.272 0L384.832 421.6zM260.736 372.832c0 0-50.176-10.56-50.176 48.832L210.56 753.312 86.528 753.312c0 0-81.856 10.112-81.856-79.616l0-299.648L260.736 372.832z"  horiz-adv-x="1024" />

    
    <glyph glyph-name="tuichu1" unicode="&#58883;" d="M953.653003 316.594957 768.424945 501.815425c-9.079145 9.078773-23.800007 9.078773-32.884269 0l-37.440215-37.438681c-9.079145-9.078773-9.079145-23.804149 0-32.882921l81.706161-81.702813L407.380563 349.79101c-12.838926 0-23.246376-10.408047-23.246376-23.246447l0-52.952003c0-12.842493 10.40745-23.251563 23.246376-23.251563l372.244928 0-81.706161-81.702813c-9.079145-9.077749-9.079145-23.804149 0-32.881898l37.445331-37.439704c9.079145-9.078773 23.805124-9.078773 32.884269 0L916.206648 246.268238c0 0.005117 0.005117 0.005117 0.005117 0.005117l37.445331 37.443797C962.731124 292.795924 962.731124 307.517207 953.653003 316.594957L953.653003 316.594957zM634.548497 747.978894 133.71476 747.978894c-38.519847 0-69.751408-31.230282-69.751408-69.74855l0-756.327658c0-38.524408 31.231561-69.749574 69.751408-69.749574l500.833737 0c38.52087 0 69.751408 31.225165 69.751408 69.749574l0 98.134041c0 12.837376-10.408474 23.251563-23.252516 23.251563l-50.396825 0c-12.837902 0-23.252516-10.414187-23.252516-23.251563l0-37.331233c-0.25379-19.037589-15.762631-34.398438-34.864447-34.398438L194.759522-51.692944c-19.257365 0-34.872634 15.615653-34.872634 34.877345L159.886888 617.758064c0 19.257599 15.609129 34.874275 34.872634 34.874275l377.774078 0c19.10591 0 34.610657-15.356756 34.864447-34.398438l0-38.431288c0-12.842493 10.414614-23.251563 23.252516-23.251563l50.396825 0c12.844042 0 23.252516 10.409071 23.252516 23.251563L704.299905 678.230344C704.299905 716.748612 673.068343 747.978894 634.548497 747.978894L634.548497 747.978894zM634.548497 747.978894"  horiz-adv-x="1024" />

    
    <glyph glyph-name="bumen" unicode="&#59205;" d="M890.96986 332.328289 545.11094 332.328289 545.11094 540.61408 684.78875 540.61408 684.78875 747.499987 343.028339 747.499987 343.028339 540.61408 480.338121 540.61408 480.338121 332.328289 133.397522 332.328289 133.397522 279.150136 133.397522 263.370755 133.397522 56.484847 64.284683 56.484847 64.284683-147.499987 270.160836-147.499987 270.160836 56.484847 202.498081 56.484847 202.498081 263.370755 480.338121 263.370755 480.338121 56.484847 409.786454 56.484847 409.786454-147.499987 615.662607-147.499987 615.662607 56.484847 545.11094 56.484847 545.11094 263.370755 822.225426 263.370755 822.225426 56.484847 753.863725 56.484847 753.863725-147.499987 959.714294-147.499987 959.714294 56.484847 890.96986 56.484847Z"  horiz-adv-x="1024" />

    
    <glyph glyph-name="iconfontxiazai" unicode="&#59026;" d="M894.682567 300.004093 735.231625 300.004093 511.997442 76.782126 288.766328 300.004093 129.314363 300.004093 1.751972 44.891811 1.751972-18.886771 1022.245981-18.886771 1022.245981 44.891811ZM1.751972-82.663306l1020.494009 0 0-63.780629-1020.494009 0 0 63.780629ZM799.012821 491.33063 575.778637 491.33063 575.778637 746.443935 448.21727 746.443935 448.21727 491.33063 224.985132 491.33063 511.997442 204.337243Z"  horiz-adv-x="1024" />

    
    <glyph glyph-name="shanchu" unicode="&#59027;" d="M479.323983 50.59572l0 13.438057c0 3.566222 0.305981 7.768941 0.897476 12.539594L259.018621 76.573371c-15.517028 0-28.802133 5.362124-39.854293 16.107863-11.030669 10.745738-16.566983 23.898293-16.566983 39.415708s5.537337 28.800953 16.566983 39.85266c11.05216 11.029194 24.337265 16.566304 39.854293 16.566304l260.619138 0c22.674324 35.21299 52.680938 63.269999 89.995281 84.170005 37.316389 20.901029 78.37414 31.339776 123.13027 31.339776 4.794386 0 9.849726-0.152473 15.23356-0.437975 5.383834-0.305969 10.746179-0.743944 16.130013-1.356904L764.126883 524.322022 633.358343 524.322022c-16.698995 0-31.035079 3.742231-42.984715 11.205203-11.927122 7.462972-21.644836 16.720823-29.108114 27.751041-7.440764 11.051707-12.979124 23.131837-16.545493 36.263925-3.589905 13.153578-5.384858 25.387203-5.384858 36.72339L539.335164 748.207092 286.004311 748.207092l-89.66781 0-72.092829 0c-8.601241 0-17.180992-3.282766-23.746793-9.826809-6.565802-6.565533-9.848702-15.166421-9.848702-23.76731l0-81.938174 0-31.120788 0-547.545564-0.02149 0 0-113.057939c0-8.600889 3.282901-17.179264 9.848702-23.744797 6.544311-6.565533 15.145552-9.827833 23.746793-9.827833l79.490612 0c0.831982-0.042979 1.64145-0.064468 2.473432-0.064468l317.917423 0c-14.31357 20.309558-25.36573 42.543955-33.134989 66.706261C483.218846-1.797557 479.323983 23.743142 479.323983 50.59572zM219.164328 396.271624c11.05216 10.745738 24.337265 16.107863 39.854293 16.107863l335.842388 0c15.517028 0 28.802133-5.362124 39.853269-16.107863 11.053183-10.745738 16.568006-23.898293 16.568006-39.415708 0-15.516392-5.515846-28.800953-16.568006-39.85266-11.05216-11.030218-24.336242-16.567327-39.853269-16.567327l-335.842388 0c-15.517028 0-28.802133 5.53711-39.854293 16.567327-11.030669 11.051707-16.566983 24.336268-16.566983 39.85266C202.596322 372.373331 208.133659 385.526909 219.164328 396.271624zM917.70176 125.814866c-10.440198 23.876804-24.622779 44.777833-42.525231 62.679551-17.924966 17.924231-38.825828 32.105209-62.70361 42.544979-23.877782 10.461259-49.549493 15.669888-77.01718 15.669888-26.853678 0-52.241922-5.208629-76.119704-15.669888-23.877782-10.43977-44.778644-24.62177-62.682119-42.544979-17.924966-17.901719-32.106524-38.802748-42.545698-62.679551-10.440198-23.876804-15.67053-49.241494-15.67053-76.116585 0-27.465538 5.230332-53.137221 15.67053-77.014024 10.439174-23.876804 24.621756-44.776809 42.545698-62.679551 17.903475-17.924231 38.804338-32.105209 62.682119-42.543955s49.266026-15.669888 76.119704-15.669888c27.467687 0 53.139398 5.231141 77.01718 15.669888s44.779667 24.620747 62.70361 42.543955c17.902452 17.902742 32.085034 38.802748 42.525231 62.679551 10.461688 23.876804 15.67053 49.548486 15.67053 77.014024C933.37229 76.573371 928.163448 101.938062 917.70176 125.814866zM833.965276-11.186392c5.384858-5.383614 8.076263-11.949146 8.076263-19.71911 0-7.746428-2.691406-14.31196-8.076263-19.696598-5.361321-5.361101-11.927122-8.05342-19.697405-8.05342-7.769259 0-14.335061 2.692319-19.697405 8.05342l-59.114728 59.112306-59.989691-59.112306c-5.383834-5.361101-11.949636-8.05342-19.719918-8.05342-7.746745 0-14.312547 2.692319-19.697405 8.05342-5.361321 5.384637-8.05375 11.95017-8.05375 19.696598 0 7.769964 2.692429 14.335497 8.05375 19.71911l59.114728 59.987233-59.114728 59.112306c-5.361321 5.362124-8.05375 11.95017-8.05375 19.696598 0 7.769964 2.692429 14.335497 8.05375 19.696598 5.384858 5.384637 11.950659 8.05342 19.697405 8.05342 7.770282 0 14.336084-2.668783 19.719918-8.05342l59.989691-59.089793 59.114728 59.089793c5.362344 5.384637 11.928146 8.05342 19.697405 8.05342 7.770282 0 14.336084-2.668783 19.697405-8.05342 5.384858-5.361101 8.076263-11.926634 8.076263-19.696598 0-7.746428-2.691406-14.334473-8.076263-19.696598l-59.092214-59.112306L833.965276-11.186392zM662.837932 581.639448l0.152479 0 101.135449 0 0 14.334473L764.12586 714.613996c0 8.600889-3.282901 17.201777-9.848702 23.76731-6.544311 6.544043-15.145552 9.826809-23.74577 9.826809L597.551392 748.208115l-1.794953 0-0.086985 0 0-99.402941c0-17.180288 6.565802-34.382065 19.675914-47.490617S645.656941 581.639448 662.837932 581.639448z"  horiz-adv-x="1024" />

    
    <glyph glyph-name="tags" unicode="&#59028;" d="M831.808 295.392l-391.2 391.2-376.608-1.44 0.576-346.592 405.184-405.184c25.408-25.44 66.304-25.792 91.328-0.768l271.488 271.52c24.992 24.992 24.672 65.856-0.768 91.264zM226.592 461.536c-35.328 0-64 28.672-64 64s28.672 64 64 64c35.36 0 64-28.672 64-64s-28.64-64-64-64zM923.072 294.624l-391.2 391.2-47.072-0.16 392.64-390.624c25.44-25.44 25.76-66.272 0.736-91.296l-271.488-271.52c-6.624-6.624-14.432-11.328-22.688-14.432 23.072-8.864 49.952-4.32 68.32 14.016l271.552 271.52c24.992 25.024 24.64 65.888-0.8 91.296z"  horiz-adv-x="1024" />

    
    <glyph glyph-name="shanchu6" unicode="&#59161;" d="M698.383634 533.776661 585.696733 533.776661 585.696733 575.481388 435.864427 575.481388 435.864427 533.776661 323.177527 533.776661 323.177527 492.681256 698.383634 492.681256ZM699.352916 460.691835 286.032122 460.691835l0-60.424463 37.520611 0 0-405.977917 375.83145 0L699.384183 400.233521l37.364275 0 0 60.424463L699.352916 460.657983zM431.705893 53.122909l-50.715359 0L380.990534 400.842843l50.715359 0L431.705893 53.122909zM536.576 53.122909l-50.715359 0L485.860641 400.842843l50.715359 0L536.576 53.122909zM643.228336 53.122909l-50.684092 0L592.544244 400.842843l50.684092 0L643.228336 53.122909z"  horiz-adv-x="1024" />

    
    <glyph glyph-name="caidan" unicode="&#59198;" d="M155.473 555.424v0zM84.819 626.075h847.892v-141.302h-847.892v141.302zM155.473 290.468v0zM84.819 361.117h847.892v-141.302h-847.892v141.302zM155.473 25.509v0zM84.819 96.16h847.892v-141.302h-847.892v141.302z"  horiz-adv-x="1024" />

    
    <glyph glyph-name="add2" unicode="&#59162;" d="M511.22686 749.948759c-247.491628 0-448.123122-200.623273-448.123122-448.104761 0-247.481488 200.631494-448.104761 448.123122-448.104761 247.492651 0 448.123122 200.624297 448.123122 448.104761C959.349982 549.325485 758.719512 749.948759 511.22686 749.948759zM510.72849-82.480134c-211.931304 0-383.736104 171.797761-383.736104 383.720382 0 211.92262 171.8048 383.720382 383.736104 383.720382 211.932327 0 383.736104-171.797761 383.736104-383.720382C894.464594 89.317627 722.659794-82.480134 510.72849-82.480134zM542.962933 526.321562 478.058101 526.321562 478.058101 333.939997 286.626507 333.939997 286.626507 269.983359 478.058101 269.983359 478.058101 77.601794 542.962933 77.601794 542.962933 269.983359 735.430155 269.983359 735.430155 333.939997 542.962933 333.939997Z"  horiz-adv-x="1024" />

    
    <glyph glyph-name="xitongrizhi" unicode="&#59009;" d="M511.998465 407.355053c-83.340448 51.877531-210.30725 72.779583-340.322606 76.746942l0-468.063325c111.651374-3.40761 221.053429-19.302625 302.50887-56.577576 24.017981-10.990309 51.63303-10.979052 75.653057 0.014326 81.454418 37.266765 190.846239 53.157687 302.483286 56.56325L852.321071 484.100972C722.306739 480.134637 595.336866 459.232584 511.998465 407.355053zM237.75754 414.226554c78.477498-6.581905 174.313027-22.532179 241.200084-64.139809l0-320.877101c-64.957022 25.771967-145.641882 42.354644-241.200084 49.53723L237.75754 414.226554zM786.23939 78.746874c-95.557178-7.184633-176.244085-23.76731-241.200084-49.53723L545.039306 350.086745c66.88501 41.609677 162.720539 57.557904 241.200084 64.139809L786.23939 78.746874z"  horiz-adv-x="1024" />

    
    <glyph glyph-name="xinzeng" unicode="&#59163;" d="M501.391462 330.254048M511.782539 671.223766c49.663085 0 96.465911-9.413394 140.401316-28.245298 43.936428-18.826787 82.275143-44.61308 115.022283-77.358879s58.53449-71.088058 77.367165-115.022687c18.827559-43.933605 28.242362-90.730421 28.242362-140.396587 0-50.209542-9.413779-97.146551-28.242362-140.804886-18.831652-43.662429-44.620025-81.864496-77.367165-114.610294s-71.086878-58.537208-115.022283-77.363995c-43.936428-18.826787-90.738232-28.246321-140.401316-28.246321-50.212623 0-97.286636 9.41851-141.222042 28.246321-43.936428 18.825764-82.280259 44.618197-115.0274 77.363995s-58.53449 70.947865-77.362048 114.610294c-18.832676 43.658336-28.246455 90.594321-28.246455 140.804886 0 49.666166 9.413779 96.462982 28.246455 140.396587 18.827559 43.934628 44.614908 82.276888 77.362048 115.022687s71.090971 58.532091 115.0274 77.358879C414.495902 661.810373 461.569916 671.223766 511.782539 671.223766L511.782539 671.223766zM718.086451 260.26195c14.190768 0 26.199759 5.050016 36.020831 15.146978 9.826189 10.095939 14.73826 22.240537 14.73826 36.431747s-4.913094 26.193569-14.73826 36.019355c-9.822095 9.825786-21.830062 14.733563-36.020831 14.733563L564.175916 362.593594 564.175916 516.500892c0 14.190187-5.0492 26.333762-15.146576 36.426631-10.097376 10.097986-22.241448 15.145955-36.43324 15.145955-14.186675 0-26.195665-5.047969-36.020831-15.145955-9.821072-10.092869-14.734166-22.236444-14.734166-36.426631l0-153.908322L307.926475 362.59257c-14.186675 0-26.194642-4.907777-36.020831-14.733563-9.821072-9.825786-14.734166-21.829168-14.734166-36.019355s4.913094-26.334785 14.734166-36.431747c9.826189-10.096962 21.834156-15.146978 36.020831-15.146978l153.914628 0 0-153.083537c0-14.190187 4.913094-26.333762 14.734166-36.431747 9.826189-10.096962 21.834156-15.146978 36.020831-15.146978 14.190768 0 26.334841 5.050016 36.43324 15.146978s15.146576 22.240537 15.146576 36.431747L564.175916 260.26195 718.086451 260.26195 718.086451 260.26195zM718.086451 260.26195"  horiz-adv-x="1024" />

    
    <glyph glyph-name="xiugai" unicode="&#59029;" d="M960.24 616.907c-7.045-25.162-13.3-48.539-30.685-62.625-152.125-123.258-274.058-276.3-412.026-413.431-3.627-3.608-7.963-6.79-10.664-11.005C448.23 38.396 345.66 26.733 255.894-7.69c-19.272-7.387-49.419 26.959-43.637 47.365 16.292 57.476 32.242 115.064 49.761 172.168 2.966 9.666 12.217 18.029 19.995 25.503 131.218 126.012 263.141 251.292 393.701 377.98 31.14 30.215 58.129 64.747 86.613 97.659 38.456 44.434 92.217 48.013 134.119 6.808 25.227-24.803 55.885-46.376 61.678-85.48 0.753-5.067 1.563-10.123 2.346-15.182C962.381 617.984 958.326 618.054 960.24 616.907zM721.565 574.876C594.361 447.425 467.393 320.214 343.14 195.721c21.402-21.686 45.09-45.688 65.777-66.644 127.033 124.28 255.2 249.665 382.735 374.434C765.676 529.963 742.021 554.046 721.565 574.876zM751.953 628.738c31.601-30.267 59.139-56.644 91.666-87.801 5.813 7.922 11.445 17.709 19.042 25.595 54.863 56.933 54.983 56.809-2.798 111.522-1.236 1.175-2.364 2.475-3.632 3.613-15.979 14.337-32.187 14.5-47.97 0.005C790.05 664.955 772.219 647.829 751.953 628.738zM281.031 61.064c29.28 11.791 52.376 21.089 72.131 29.043-15.174 17.848-29.055 34.176-45.392 53.396C298.67 115.461 290.938 91.613 281.031 61.064zM464.602-147.783c-84.649 0-169.299-0.129-253.948 0.055-46.354 0.102-87.305 12.635-118.404 50.028-20.506 24.654-26.319 53.31-26.365 83.719-0.255 168.444-0.916 336.896 0.196 505.335 0.591 90.427 56.421 144.32 146.989 144.846 91.49 0.531 182.985 0.018 274.474 0.201 20.044 0.037 39.148-1.542 41.708-26.855 1.875-18.522-13.274-27.868-42.991-27.891-88.919-0.075-177.848 0.133-266.776-0.085-63.603-0.158-99.734-36.669-99.753-100.365-0.06-162.45-0.075-324.903-0.035-487.354 0.01-50.26 33.871-86.142 84.609-86.331 173.573-0.657 347.151-0.527 520.724-0.116 41.066 0.096 67.666 29.396 67.848 73.861 0.454 111.143 0.216 222.289 0.386 333.438 0.015 8.486-1.965 19.188 2.284 24.958 7.151 9.717 19.358 23.275 27.953 22.286 8.985-1.033 16.895-16.867 23.842-27.193 2.397-3.558 0.548-10.007 0.548-15.137 0.01-110.302 0.154-220.605-0.041-330.907-0.16-92.874-43.949-136.383-136.985-136.483C628.777-147.857 546.689-147.792 464.602-147.783z"  horiz-adv-x="1024" />

    
    <glyph glyph-name="shanchu1" unicode="&#59032;" d="M513.054 748.355c248.602-0.285 448.484-200.718 447.958-449.188-0.532-249.265-201.231-447.766-452.116-447.159-246.599 0.599-446.46 201.877-445.908 449.067C63.541 549.106 264.316 748.641 513.054 748.355zM511.209-37.363c187.756-0.57 337.401 147.491 338.498 334.922 1.111 189.62-148.774 340.753-337.83 340.646C325 638.097 175.007 488.545 174.283 301.594 173.554 113.132 322.567-36.784 511.209-37.363zM734.908 244.198c-58.049 0-389.86 0.266-445.688 0.266 0 37.446 0 72.919 0 110.545 54.575 0 387.941-0.256 445.688-0.256"  horiz-adv-x="1024" />

    
    <glyph glyph-name="jiekouguanli" unicode="&#59115;" d="M948.513749 487.155405 948.513749 687.845193l-66.993485 0 0 33.43653-33.508511 0 0 33.460066-66.994508 0 0 33.43653L714.000222 788.178319 714.000222 821.614849l-33.484974 0 0-66.87306 33.484974-22.288632 0-11.171434 16.782909 0 16.725602-11.132548 0-22.303982-100.501996 0 0-66.896596L379.008236 620.948597c0 0-158.776555 26.819832-201.005016-133.793192-1.512509-5.718235-18.290301-150.499689 100.501996-167.228699 5.340854-0.756223 340.309303 23.063275 469.003517-133.793192 7.490908-9.145287 0-100.333126 0-100.333126s-23.016123-66.896596-100.501996-66.896596c-77.462336 0-569.506536 0-569.506536 0l0-66.896596 469.003517 0c0 0 272.205485-29.253254 268.022038 167.229722-0.654943 30.555923-1.104193 53.223179-1.398917 69.721945-8.119244 15.922644-51.816209 95.321996-132.61159 130.967844-121.723166 53.710272-335.016546 66.896596-335.016546 66.896596s-96.319572-14.626115-100.501996 33.43653c-4.182424 48.087205-6.286428 131.712811 134.011531 133.793192 140.273398 2.102894 267.998501 0 267.998501 0l0-66.896596L948.513749 487.156428zM813.126838 188.958862c0.928177-1.820462 1.398917-2.825348 1.398917-2.825348S811.526322 278.566716 813.126838 188.958862z"  horiz-adv-x="1024" />

    
    <glyph glyph-name="huishouzhan1" unicode="&#59035;" d="M230.77649-6.99186c0-56.512085 45.622952-102.616122 102.137409-102.616122l358.172202 0c56.514457 0 102.532421 46.104037 102.532421 102.616122L793.618523 402.046141l-562.842032 0L230.77649-6.99186zM614.532421 325.582655c0 14.115486 11.456394 25.582655 25.583729 25.582655 14.127335 0 25.583729-11.467169 25.583729-25.582655l0-306.99186c0-14.140045-11.456394-25.582655-25.583729-25.582655-14.127335 0-25.583729 11.44261-25.583729 25.582655L614.532421 325.582655zM486.613778 325.582655c0 14.115486 11.456394 25.582655 25.583729 25.582655 14.127335 0 25.583729-11.467169 25.583729-25.582655l0-306.99186c0-14.140045-11.456394-25.582655-25.583729-25.582655-14.127335 0-25.583729 11.44261-25.583729 25.582655L486.613778 325.582655zM358.695134 325.582655c0 14.115486 11.456394 25.582655 25.583729 25.582655 14.127335 0 25.583729-11.467169 25.583729-25.582655l0-306.99186c0-14.140045-11.456394-25.582655-25.583729-25.582655-14.127335 0-25.583729 11.44261-25.583729 25.582655L358.695134 325.582655zM793.421016 606.70738 640.11615 606.70738l0 51.450812c0 28.255531-23.108247 50.879807-51.364964 50.879807l-153.502372 0c-28.25774 0-50.969951-22.624277-50.969951-50.879807l0-51.450812L230.578984 606.70738c-28.25774 0-50.969951-22.624277-50.969951-50.879807l0-51.16531c0-28.256554 22.686627-51.450812 50.931064-51.450812l562.932087 0c28.231133 0 51.313796 23.194258 51.313796 51.450812l0 51.16531C844.78598 584.08208 821.677733 606.70738 793.421016 606.70738zM588.948693 606.70738l-153.502372 0 0 25.868157c0 14.139022 11.257864 25.297153 25.386222 25.297153l102.334915 0c14.127335 0 25.781235-11.158131 25.781235-25.297153L588.948693 606.70738z"  horiz-adv-x="1024" />

    
    <glyph glyph-name="tianjia2" unicode="&#59165;" d="M511.490884 745.708178c-219.139768 0-396.782769-177.645956-396.782769-396.766512 0-219.131813 177.643001-396.766512 396.782769-396.766512 219.129534 0 396.782769 177.635723 396.782769 396.766512C908.273654 568.062222 730.620419 745.708178 511.490884 745.708178zM510.97921 7.423455c-188.623527 0-341.532204 152.902412-341.532204 341.518211 0 188.605565 152.908677 341.507978 341.532204 341.507978 188.614317 0 341.521971-152.902412 341.521971-341.507978C852.501181 160.325867 699.592504 7.423455 510.97921 7.423455zM275.025833 398.821703l472.763298 0 0-59.860343-472.763298 0 0 59.860343ZM482.067579 585.313118l59.863819 0 0-472.743928-59.863819 0 0 472.743928Z"  horiz-adv-x="1024" />

    
    <glyph glyph-name="unie614" unicode="&#58938;" d="M-52.89 852.89v0 0zM788.938 350.879v163.289q0 55.182-21.501 104.822t-57.937 86.075-86.075 57.937-104.822 21.501h-9.921q-112.555 0-191.993-79.438t-79.438-190.862v-163.289h-94.901v-559.381h744.736v559.381h-98.185zM599.17-105.869h-168.796l40.813 180.941q-40.813 24.29-40.813 72.836 0 34.211 24.819 59.031t59.596 24.819 59.596-24.819 24.819-59.031q0-48.545-41.943-72.836zM653.222 350.879h-280.256v163.289q0 55.182 39.718 94.901t95.996 39.718h9.921q27.574 0 52.394-10.485t43.038-28.704 28.704-43.038 10.485-52.394v-163.289z"  horiz-adv-x="1024" />

    
    <glyph glyph-name="ordinaryemail1" unicode="&#59206;" d="M673.344 338.784 992 608.608l0-649.984L673.344 338.784zM35.648 642.912l953.92 0L512.64 241.696 35.648 642.912zM512.512 202.464l139.904 118.272 304-362.432L68.864-41.696l303.936 358.848L512.512 202.464zM350.656 338.784 32 608.608l0-649.984L350.656 338.784z"  horiz-adv-x="1024" />

    
    <glyph glyph-name="circularxiangxi" unicode="&#59055;" d="M512 780C246.784 780 32 565.152 32 300c0-265.152 214.784-480 480-480 265.152 0 480 214.848 480 480C992 565.152 777.152 780 512 780zM453.44 47.136 256 47.136 256 244.576l197.44 0L453.44 47.136zM453.44 354.08 256 354.08 256 551.456l197.44 0L453.44 354.08zM768 46.624 520.448 46.624 520.448 125.28 768 125.28 768 46.624zM768 166.624 520.448 166.624 520.448 245.28 768 245.28 768 166.624zM768 354.72 520.448 354.72l0 78.72L768 433.44 768 354.72zM768 474.72 520.448 474.72 520.448 553.44 768 553.44 768 474.72z"  horiz-adv-x="1024" />

    
    <glyph glyph-name="fangbianxiangxi" unicode="&#59207;" d="M522.56 518.432 522.56 616.8 832 616.8l0-98.368L522.56 518.432 522.56 518.432zM522.56 368.416 522.56 466.784 832 466.784l0-98.368L522.56 368.416 522.56 368.416zM522.56 133.28 522.56 231.584 832 231.584l0-98.304L522.56 133.28 522.56 133.28zM522.56-16.736l0 98.304L832 81.568l0-98.304L522.56-16.736 522.56-16.736zM438.784 367.584 192 367.584 192 614.368l246.784 0L438.784 367.584zM438.784-16.032 192-16.032 192 230.752l246.784 0L438.784-16.032zM914.176-25.888c0-42.112-34.176-76.288-76.288-76.288L186.24-102.176c-42.112 0-76.352 34.176-76.352 76.288l0 312.96L32 287.072l0-312.96c0-84.928 69.184-154.112 154.24-154.112l651.648 0c84.928 0 154.112 69.184 154.112 154.112l0 312.96-77.824 0L914.176-25.888zM837.888 780 186.24 780C101.184 780 32 710.816 32 625.76l0-312.832 77.824 0L109.824 625.76c0 42.112 34.304 76.416 76.352 76.416l651.648 0c42.112 0 76.288-34.304 76.288-76.416l0-312.832L992 312.928 992 625.76C992 710.816 922.816 780 837.888 780z"  horiz-adv-x="1024" />

    
    <glyph glyph-name="shuaxin4" unicode="&#59134;" d="M883.875 127.194 883.875 127.194c41.592 90.131 47.607 188.11 23.715 277.077-27.468 102.682-95.063 194.238-193.08 249.865l43.48 93.961-247.21-64.819 110.564-230.424 45.491 98.308c66.606-40.672 112.204-104.396 131.498-176.146 17.257-64.639 13.024-134.926-17.145-200.514-38.445-83.352-110.309-140.105-192.603-162.245-11.892-3.177-24.003-5.62-36.221-7.297l51.033-105.49c4.853 1.129 9.665 2.263 14.447 3.572C731.146-66.755 830.987 12.291 883.875 127.194L883.875 127.194zM359.179 44.718c-67.595 40.598-113.886 104.87-133.367 177.273-17.252 64.64-12.985 134.967 17.145 200.48 38.447 83.386 110.31 140.141 192.605 162.28 13.646 3.651 27.541 6.275 41.587 7.957l-50.886 106.037c-6.676-1.426-13.353-2.956-19.957-4.744-113.266-30.272-213.141-109.317-266.07-224.221-41.511-90.097-47.533-188.11-23.639-277.038l0.073-0.293c27.686-103.375 96.083-195.406 195.196-250.886l-41.111-89.661 246.955 65.694L406.381 147.618 359.179 44.718 359.179 44.718zM359.179 44.718"  horiz-adv-x="1024" />

    
    <glyph glyph-name="bianji2" unicode="&#59166;" d="M125.961-86.039 323.951-23.813 782.156 434.392 646.392 570.156 188.187 111.951ZM748.215 671.98l-56.568-56.569 135.765-135.764 56.568 56.568c18.745 18.745 18.745 49.137 0 67.882l-67.882 67.882C797.353 690.725 766.961 690.725 748.215 671.98z"  horiz-adv-x="1024" />

    
    <glyph glyph-name="ttpodicon" unicode="&#59168;" d="M531.649526-1.997102 531.649526 431.295302c0 13.262048-10.743692 23.981181-23.981181 23.981181-13.261025 0-23.981181-10.719132-23.981181-23.981181l0-433.29138c0-13.237489 10.720156-23.981181 23.981181-23.981181C520.905834-25.978283 531.649526-15.234591 531.649526-1.997102zM827.193659 497.627033c-13.094226 1.127683-24.341385-9.904581-24.796756-23.11751l-19.760043-572.454884L236.464573-97.945361c-0.048095 0-2.37407-0.023536-2.422166-0.023536l-1.367137 0-19.760043 572.47842c-0.455371 13.237489-11.943007 24.26873-24.796756 23.11751-13.237489-0.431835-23.597441-11.534707-23.14207-24.772196l20.575618-595.59593c0.215918-6.090718 2.734274-11.870352 7.074116-16.163121 6.186909-6.138814 7.578606-7.074116 29.857005-7.074116 3.957125 0 8.56098 0.048095 13.981433 0.048095l563.485605-0.023536c11.174504-0.455371 29.161157 3.213181 30.071899 30.216185l20.311605 588.593446C850.790076 486.092325 840.430124 497.195198 827.193659 497.627033zM382.486274 40.090459 382.486274 389.207741c0 13.262048-10.743692 23.981181-23.981181 23.981181s-23.981181-10.719132-23.981181-23.981181l0-349.118306c0-13.237489 10.743692-23.981181 23.981181-23.981181S382.486274 26.85297 382.486274 40.090459zM632.825856 40.090459c0-13.237489 10.743692-23.981181 24.00574-23.981181 13.237489 0 23.981181 10.743692 23.981181 23.981181l0 43.669592c0 13.237489-10.743692 23.981181-23.981181 23.981181-13.262048 0-24.00574-10.743692-24.00574-23.981181L632.825856 40.090459zM656.830573 147.021863c13.237489 0 23.981181 10.743692 23.981181 23.981181L680.811754 389.207741c0 13.262048-10.743692 23.981181-23.981181 23.981181-13.262048 0-24.00574-10.719132-24.00574-23.981181l0-218.204697C632.825856 157.765555 643.568525 147.021863 656.830573 147.021863zM882.924961 647.317287 628.916826 647.317287c-4.748141 23.620977-16.451694 45.468564-34.125215 63.11855-23.52581 23.549346-54.509475 36.499285-87.195921 36.499285-58.82578 0-109.617583-43.621497-121.17685-99.617835L132.386146 647.317287c-13.237489 0-23.981181-10.743692-23.981181-23.981181 0-13.262048 10.743692-23.981181 23.981181-23.981181L407.54602 599.354925c0.119727 0 0.239454-0.071631 0.360204-0.071631 0.119727 0 0.215918 0.071631 0.335644 0.071631l198.707644 0c0.144286 0 0.239454-0.071631 0.360204-0.071631 0.119727 0 0.215918 0.071631 0.335644 0.071631l275.2796 0c13.237489 0 23.981181 10.719132 23.981181 23.981181C906.906142 636.573595 896.16245 647.317287 882.924961 647.317287zM436.323437 647.317287c10.359952 29.592992 38.633902 51.655474 71.272253 51.655474 19.880793 0 38.801724-7.961322 53.286624-22.470781 8.441253-8.417717 14.365172-18.441001 18.081821-29.184693L436.323437 647.317287z"  horiz-adv-x="1024" />

    
    <glyph glyph-name="quanxianguanli2" unicode="&#59209;" d="M510.289 170.945C299.156 170.945 128 86.986 128-16.584 128-52 160.558-65.651 256.311-76c74.022-8 162.397-8 255.689-8 95.561 0 190.333 0 257.006 8C863.323-64.683 896-52 896-16.584 896 86.986 721.415 170.945 510.289 170.945zM321.954 428c13.975-114.547 98.597-192 190.044-192 91.451 0 176.072 77.453 190.051 192L704 428l128 0 0 64L704 492 704 593.5 704 620c0 35.346-28.653 64-64 64L384 684c-35.347 0-64-28.654-64-64l0-26.5L320 492 192 492l0-64 128 0L321.954 428z"  horiz-adv-x="1024" />

    
    <glyph glyph-name="xitongshezhi" unicode="&#58895;" d="M892.428917 119.714937 734.664777 273.890342c13.574157 35.912931 21.029966 74.752518 21.029966 115.314329 0 182.894494-150.73812 331.144956-336.629877 331.144956-66.786079 0-129.028679-19.128663-181.378977-52.120055L430.952614 476.280866l-91.284029-90.5012L144.074861 580.279475c-38.842657-53.984518-61.674665-119.902834-61.674665-191.074803 0-182.878121 150.737096-331.12756 336.663646-331.12756 44.782949 0 87.516216 8.614192 126.598326 24.240077L700.878277-69.386932c24.982998-29.008684 62.262042-47.443545 103.936187-47.443545 75.248821 0 136.225591 59.987233 136.225591 133.977387C941.040055 58.316565 922.142659 95.136146 892.428917 119.714937zM560.371172 167.660926c-41.174772-25.52842-89.925079-40.313148-142.193513-40.313148-147.535171 0-267.137153 117.625978-267.137153 262.72568 0 25.369807 3.681856 49.89027 10.505261 73.098855 0 0 151.161768-150.176324 152.801105-151.788032 13.831007-13.609972 36.280298-13.609972 50.143027 0l141.233652 140.006707c13.83203 13.626345 13.83203 35.68371 0 49.308009-0.887206 0.87288-146.635685 145.624658-146.635685 145.624658 19.009959 4.225231 38.781258 6.476505 59.090816 6.476505 147.500379 0 267.069615-117.625978 267.069615-262.72568 0-47.233768-12.679787-91.550089-34.857902-129.851417l115.14139-114.78221c-43.877323-12.986779-78.408791-47.149856-91.351568-90.420359L560.371172 167.660926zM804.882002-48.019275c-17.546631 0-33.481556 6.729262-45.318138 17.693987 0 0-9.896394 11.55415-9.896394 11.556197-6.90834 10.285251-10.939143 22.606881-10.939143 35.865859 0 35.95591 29.604248 65.097624 66.153676 65.097624 13.361309 0 25.78834-3.89982 36.189224-10.587126 0 0 0.001023 0 0.001023-0.002047l12.133342-10.015098c11.096732-11.640108 17.898649-27.281343 17.898649-44.493354C871.105263-18.876538 841.469292-48.019275 804.882002-48.019275z"  horiz-adv-x="1024" />

    
    <glyph glyph-name="shanchu7" unicode="&#59169;" d="M280.178679 319.036565M704.984804 486.505741M570.968531 613.075415M846.5541-123.524946 176.249655-123.524946c-48.726771 0-88.357374 39.625486-88.357374 88.363514L87.892281 635.150176c0 48.739051 39.630602 88.375793 88.357374 88.375793L846.5541 723.525969c48.740074 0 88.376817-39.636742 88.376817-88.375793l0-670.311609C934.93194-83.89946 895.294175-123.524946 846.5541-123.524946zM176.249655 668.657314c-18.478863 0-33.517371-15.021112-33.517371-33.507138l0-670.311609c0-18.473747 15.039531-33.493835 33.517371-33.493835L846.5541-68.655268c18.486026 0 33.508161 15.021112 33.508161 33.493835L880.062262 635.150176c0 18.486026-15.022135 33.507138-33.508161 33.507138L176.249655 668.657314zM389.531226 150.691439c-7.02295 0-14.028505 2.676969-19.383466 8.033977-10.717086 10.710946-10.717086 28.090778 0 38.800701l243.732094 243.751536c10.711969 10.710946 28.092825 10.710946 38.802748 0 10.710946-10.710946 10.710946-28.091802 0-38.801724L408.932088 158.724393C403.576103 153.368408 396.553153 150.691439 389.531226 150.691439zM633.281739 150.691439c-7.02295 0-14.045901 2.676969-19.402909 8.033977L370.146737 402.474906c-10.717086 10.709923-10.717086 28.091802 0 38.801724 10.709923 10.710946 28.05087 10.710946 38.784328 0l243.750513-243.751536c10.710946-10.709923 10.710946-28.089755 0-38.800701C647.32764 153.368408 640.304689 150.691439 633.281739 150.691439z"  horiz-adv-x="1024" />

    
    <glyph glyph-name="logoshuiyin" unicode="&#58985;" d="M502.627027 243.250508c-13.43294-53.806463-46.995337-132.305305-128.96728-141.309376-0.766456-0.085958-1.482771-0.121773-2.241041-0.206708 13.117762-41.764196 60.33004-153.12447 132.095527-153.12447 60.665685 0 116.79096 113.924679 132.060735 154.295132-0.777713 0.044002-1.569752 0.030699-2.339278 0.085958C550.472731 108.988642 516.344446 188.74615 502.627027 243.250508zM681.37713 93.422108c-7.079232 0-14.314007 0.255827-21.654182 0.650823-17.775852-40.348963-82.652442-158.310585-153.177682-158.310585-83.327824 0-138.408303 115.386984-153.652496 157.174716-13.845333-1.252527-27.189246-1.870604-39.86187-1.870604-143.980205 0-214.906581 74.898851-244.980527 121.174803 41.235147-204.368574 222.166939-358.706685 438.494892-358.706685 230.946906 0 421.585781 175.918615 444.899766 400.844388C918.727886 194.1533 840.126714 93.422108 681.37713 93.422108zM505.00826 235.413006c0.146333-0.046049 0.321318-0.188288 0.49221-0.291642 0.880043 3.087315 1.6465 6.008854 2.38021 8.919137-1.810229 0.029676-3.603061 0.246617-5.364171 0.529049C503.289106 241.609125 504.097518 238.557626 505.00826 235.413006zM505.293763 234.434725c0.060375 0.218988 0.12075 0.464581 0.206708 0.686638-0.170892 0.104377-0.346901 0.245593-0.49221 0.291642C505.122871 235.090665 505.183246 234.768323 505.293763 234.434725zM509.754355 748.176392c-246.670006 0-447.354678-200.674439-447.354678-447.319885 0-16.461927 0.954745-32.68133 2.690272-48.644907l1.173732-2.955308c2.332115-6.738471 63.053058-160.062486 290.777573-138.615011 90.909499 8.627495 124.865869 89.082898 137.182382 138.106428-10.949376 6.216585-18.427698 17.820877-18.427698 31.317263 0 19.958564 16.180518 36.128849 36.130895 36.128849 19.941168 0 36.132942-16.170285 36.132942-36.128849 0-15.924691-10.401908-29.284977-24.746614-34.081213 3.572362-13.568017 8.730848-29.269627 16.130376-45.014216 26.242687-55.79577 67.239404-85.797062 121.793904-89.199555 223.957725-13.864776 289.708218 171.290201 295.800983 190.32779C956.346669 548.170173 756.004805 748.176392 509.754355 748.176392zM213.77941 373.465199c-3.712555 31.052227 37.371142 68.673056 68.441788 72.370261 4.058432 0.485047 8.06263 0.50449 11.975752 0.14224 1.537006 0.155543 3.092431 0.236384 4.671393 0.236384 25.590841 0 46.338375-20.760836 46.338375-46.347584 0-1.044796-0.091074-2.068102-0.156566-3.095501 0.023536-0.163729 0.065492-0.321318 0.084934-0.48607 3.699252-31.098275-13.420661-52.620451-44.473911-56.30333C269.608949 336.266995 217.479685 342.409902 213.77941 373.465199zM391.570675 189.666102c-0.851391-4.953825-5.528923-8.292873-10.499122-7.427156-2.0241 0.336668-3.651157 1.430582-4.945639 2.789533-0.048095-0.013303-0.097214-0.057305-0.13917-0.089028-4.88424-2.451842-29.017894-10.479679-36.198433-11.755742-7.138584-1.300622-17.012466-4.046153-22.638603-2.332115-1.385557 0.376577-2.660596 0.904603-3.742231 1.506307-1.056052 0.522909-1.901303 1.215688-2.538823 1.780553-1.293459 1.171686 0.023536 1.658779 0.759293 1.487887 0.754177-0.084934 7.52744 0.310062 9.993608 0.225127 9.156544 1.592264 7.492648 1.196245 25.347295 5.465478 7.377014 2.354628 18.538215 5.92085 26.76355 8.567119-0.151449 0.923022-0.267083 1.885953-0.102331 2.867304 0.850367 4.927219 5.541203 8.277524 10.497075 7.439436C389.085064 199.329183 392.420019 194.624021 391.570675 189.666102zM390.165676 208.99431c-4.342912-0.574075-8.213056 2.102894-9.647731 6.036483-11.384281 1.257643-35.809577 5.437849-43.367717 7.838525-8.846482 2.805906-21.689998 5.54018-27.048029 10.81737-1.342578 1.299599-2.454912 2.648316-3.305279 3.918239-0.929162 1.257643-1.469468 2.530636-1.865487 3.550873-0.765433 2.109034 1.01512 1.840928 1.786693 1.276063 0.783853-0.571005 8.68173-4.183276 11.428284-5.704932 11.361769-3.697205 9.222035-3.12927 31.981389-8.915044 8.505721-1.50733 20.772093-3.65525 31.004131-5.440919 1.336438 2.411933 3.65832 4.297886 6.608511 4.693906 4.989641 0.660032 9.558703-2.849908 10.232039-7.823176C398.647861 214.28378 395.160433 209.709601 390.165676 208.99431zM405.902078 235.998337c-5.007037 0-9.064446 4.079922-9.064446 9.093099 0 0.732687 0.231267 1.390673 0.407276 2.074242-0.910743 0.267083-1.75497 0.529049-2.739391 0.877997-6.604418 2.357697-28.008914 10.512425-35.506678 16.053628-7.459902 5.528923-18.724457 12.295024-22.055318 19.007913-0.844228 1.683339-1.481747 3.305279-1.89414 4.827959-0.437975 1.457188-0.546446 2.845815-0.584308 3.944845-0.048095 2.251274 1.581008 1.403976 2.084475 0.613984 0.541329-0.789992 6.859221-6.740518 8.979512-9.122775 9.519818-7.181563 4.544503-3.875261 24.186865-16.756639 9.806343-5.40715 21.895683-9.750061 30.973432-14.298658 1.494027 1.108241 3.232624 1.871627 5.212722 1.871627 5.042853 0 9.131985-4.065596 9.131985-9.096169C415.034063 240.078259 410.944931 235.998337 405.902078 235.998337zM601.901031 241.743178c-4.980431 0-9.090029 4.079922-9.090029 9.124821 0 4.998851 4.109598 9.077749 9.090029 9.077749 2.048659 0 3.749394-0.775666 5.304819-1.855254 9.05933 4.516874 21.13639 8.860808 30.931476 14.298658 19.647479 12.880355 14.68956 9.578146 24.180725 16.741289 2.127454 2.353604 8.445346 8.332782 8.979512 9.125845 0.541329 0.801249 2.14485 1.604544 2.096754-0.632403 0-1.081635-0.127913-2.484587-0.626263-3.931542-0.402159-1.506307-0.978281-3.155876-1.821485-4.814656-3.359514-6.737448-14.600533-13.494339-22.065552-19.000749-7.518231-5.560646-28.921703-13.716396-35.525098-16.089443-0.995677-0.319272-1.840928-0.580215-2.741437-0.874927 0.135076-0.655939 0.414439-1.314948 0.414439-2.044566C611.027899 245.824123 606.98584 241.743178 601.901031 241.743178zM697.026552 179.899668c-0.661056-0.585331-1.517563-1.27504-2.606361-1.798972-1.056052-0.571005-2.301416-1.12666-3.692089-1.520633-5.65172-1.694595-15.488763 1.084705-22.632463 2.354628-7.217379 1.287319-31.350009 9.298783-36.222993 11.771091-0.040932 0.01535-0.084934 0.057305-0.13303 0.084934-1.294482-1.376347-2.953262-2.453888-4.963035-2.803859-4.958942-0.838088-9.637498 2.49789-10.511401 7.436366-0.819668 4.958942 2.509147 9.655917 7.467065 10.514471 4.927219 0.835018 9.66615-2.512217 10.485819-7.439436 0.177032-0.969071 0.092098-1.943258-0.072655-2.837628 8.202822-2.675946 19.387559-6.246261 26.733874-8.596795 17.83725-4.25593 16.190751-3.875261 25.370831-5.467525 2.491751 0.088004 9.259898-0.279363 9.988492-0.222057C696.983573 181.536958 698.286242 181.065214 697.026552 179.899668zM702.934099 246.922131c-0.413416-1.010003-0.985444-2.311649-1.864464-3.541663-0.852414-1.287319-1.982144-2.645247-3.317559-3.947915-5.328355-5.27412-18.166755-8.011464-27.073612-10.806113-7.570419-2.405793-31.939433-6.589069-43.361577-7.820106-1.432629-3.948939-5.279237-6.640234-9.623171-6.039553-4.986571 0.689708-8.462742 5.250584-7.78429 10.250458 0.621147 4.972245 5.220908 8.454556 10.226922 7.792477 2.922563-0.376577 5.254677-2.25025 6.597255-4.677533 10.233062 1.77032 22.497387 3.936659 31.004131 5.424546 22.772656 5.832845 20.6319 5.222955 31.945573 8.906857 2.78237 1.561565 10.662851 5.174859 11.466146 5.715165C701.906699 248.747709 703.692369 249.040375 702.934099 246.922131zM813.551452 373.638137c-3.700275-31.084972-55.833633-37.181831-86.857207-33.479509-31.05939 3.681856-48.191582 25.205055-44.509726 56.291051 3.741207 31.067576 31.847336 53.242622 62.912865 49.560766C776.198729 442.311193 817.282427 404.706737 813.551452 373.638137z"  horiz-adv-x="1024" />

    
    <glyph glyph-name="guanbi1" unicode="&#59143;" d="M760.925884 96.652685 557.592896 299.985674 760.957607 503.351408 715.372386 548.935606 512.009721 345.568848 308.652174 548.926396 263.066953 503.342198 466.4245 299.98465 263.065929 96.62608 308.649104 51.042905 512.008698 254.401476 715.341686 51.067464Z"  horiz-adv-x="1024" />

    
    <glyph glyph-name="iconzfb" unicode="&#59127;" d="M423.952176 248.21866c-15.685237 8.178263-25.103748 11.063987-54.502311 22.398126-29.435403 11.378142-40.684608 8.828063-69.000514 7.553023-28.376281-1.249457-77.926814-38.107923-77.926814-75.8055 0-56.035224 34.248012-83.58058 100.735285-83.58058 20.303418 1.034563 45.263903 8.132214 74.843592 23.432689 30.469965 17.321504 59.113329 38.73521 84.119863 65.221444 1.780553 2.069125 3.694135 4.064572 5.508457 6.111185l0 0C452.641589 232.965258 431.327144 245.140555 423.952176 248.21866L423.952176 248.21866 423.952176 248.21866zM905.001257 574.642081c0 0.744967-0.146333 1.442862-0.372483 2.118244-1.39579 4.619204-8.024767 7.264451-19.790742 8.057513-12.544711 0.845251-27.798113 1.781576-45.855374 2.886747-1.167592 0.049119-2.430352 0.147356-3.64297 0.192382-8.589632 0.505513-17.359366 1.276063-26.501584 2.237971-11.666714 1.27504-23.746844 2.864234-36.257785 4.860704-22.252817 3.536546-42.508139 11.186783-60.792575 23.001877-6.114255 4.015454-12.090363 8.15268-17.828041 12.507872-5.123694 3.777023-10.079566 7.795547-14.929014 11.886725-4.244674 3.559059-8.348132 7.238868-12.366655 11.06501-3.031033 2.837628-6.110161 5.750981-9.092076 8.540514-10.645454 9.936303-21.13639 19.632129-31.590486 29.062919-11.713786 10.585079-23.839965 20.25737-36.349883 29.013801-1.769296 1.27504-3.549849 2.52859-5.317099 3.75451-0.890276 0.599657-1.769296 1.154289-2.611477 1.708921-13.256932 8.540514-27.2926 14.483876-42.187845 17.874089-0.226151 0.098237-0.456395 0.194428-0.695848 0.194428-0.230244 0.095167-0.421602 0.144286-0.648776 0.144286-0.890276 0.045025-2.191922 0.095167-3.970428 0.166799-4.800329 0.2415-12.547781 0.577145-21.040199 0.529049-0.795109 0-1.588171 0-2.334161 0-0.744967 0-1.589195 0-2.332115 0-8.721639 0.049119-16.745383-0.335644-21.50785-0.529049-1.540076-0.071631-2.75474-0.166799-3.596921-0.166799-0.180102 0-0.372483-0.049119-0.554632-0.144286-0.240477 0-0.468674-0.097214-0.792039-0.194428-14.84715-3.390213-28.836769-9.333576-42.0937-17.874089-0.841158-0.554632-1.717108-1.108241-2.608407-1.708921-1.769296-1.226944-3.550873-2.479471-5.317099-3.75451-12.509918-8.755408-24.635073-18.427698-36.352953-29.013801-10.536984-9.54847-21.277606-19.413142-32.05609-29.496801-2.886747-2.694365-5.739724-5.412266-8.67559-8.106632-3.40454-3.272533-6.9022-6.445806-10.54824-9.574053-5.318122-4.619204-10.910491-9.094122-16.696264-13.377682-5.833869-4.355191-11.717879-8.492418-17.827017-12.507872-18.284435-11.815093-38.541805-19.464307-60.796668-23.001877-12.593829-1.99647-24.586978-3.584642-36.255739-4.860704-9.094122-0.961908-17.960047-1.732457-26.548656-2.237971-1.215688-0.046049-2.430352-0.144286-3.632737-0.192382-18.019399-1.106194-33.271778-2.042519-45.86663-2.886747-11.715833-0.792039-18.34481-3.438309-19.739577-8.057513-0.228197-0.675382-0.373507-1.373277-0.373507-2.118244l0-20.61962c0.228197-47.39238 1.022283-90.50427 2.382257-129.431861l0-0.049119c0-0.049119 0.049119-0.169869 0.049119-0.313132 0.180102-4.474918 0.275269-8.974395 0.552585-13.352099l0.325411 0c1.310855-18.98233 3.499707-51.557236 3.548826-57.524135l0-0.648776c0.2415-2.671852 0.468674-5.318122 0.744967-7.940856 0.049119-0.599657 0.096191-1.177825 0.096191-1.778506 0.228197-2.045589 0.421602-4.091178 0.601704-6.15928 0.097214-0.553609 0.097214-1.203408 0.239454-1.75804 0.098237-2.018983 0.324388-4.064572 0.601704-6.037507 0-0.554632 0.096191-1.106194 0.096191-1.660826 0.228197-2.068102 0.469698-4.064572 0.698918-6.110161 0-0.481977 0.049119-0.936325 0.143263-1.418302 0.230244-2.093684 0.469698-4.185322 0.697895-6.329149 0.049119-0.336668 0.145309-0.672312 0.145309-1.034563 0.276293-2.237971 0.553609-4.426823 0.794086-6.615675 0.034792-0.2415 0.132006-0.483001 0.132006-0.672312 0.276293-2.385327 0.61296-4.716418 0.938372-7.003508l0-0.214894c2.610454-18.911722 5.689582-36.640502 9.239432-53.095265 1.539053-7.098675 3.211135-14.003945 4.990664-20.812001 0.048095-0.385786 0.098237-0.697895 0.230244-1.034563 0.74599-3.031033 1.539053-6.014994 2.381234-8.901741 0.096191-0.483001 0.228197-0.842181 0.324388-1.276063 0.841158-2.935865 1.683339-5.867638 2.477424-8.755408 0.13303-0.290619 0.181125-0.578168 0.277316-0.844228 1.768273-5.963829 3.645017-11.859096 5.556553-17.587564 0.180102-0.38374 0.228197-0.743944 0.420579-1.12973 0.87902-2.694365 1.817392-5.365194 2.743484-8.060583 0.288572-0.434905 0.37146-0.890276 0.563842-1.324158 0.926092-2.645247 1.961678-5.313006 2.88777-7.866155 0.192382-0.384763 0.288572-0.77055 0.468674-1.12973 1.070378-2.669806 2.153036-5.364171 3.223415-8.036024 1.167592-2.886747 2.430352-5.822612 3.63376-8.661264l0 0c10.128685-22.975271 22.301935-44.434002 36.531008-64.404846 7.42204-10.343579 15.494902-20.714787 24.227798-31.060413l0.324388 0c-0.049119-0.048095-0.192382-0.048095-0.324388-0.098237 10.069333-11.955286 20.990057-23.790846 32.707936-35.650965 6.061043-6.207375 12.544711-12.511965 19.174712-18.789948 0.370437-0.384763 0.698918-0.720408 1.068332-1.083681 2.238994-2.045589 4.393054-4.113691 6.630001-6.158257 0.370437-0.289596 0.600681-0.554632 0.924045-0.842181 2.15406-2.044566 4.39203-4.068665 6.581905-6.061043 0.192382-0.195451 0.419556-0.339738 0.562818-0.505513 2.335185-2.121314 4.668323-4.210905 6.954389-6.305613 0.505513-0.434905 0.973164-0.792039 1.39579-1.226944 2.333138-2.044566 4.714372-4.184299 7.143701-6.30152 0.230244-0.218988 0.457418-0.408299 0.698918-0.649799 2.284019-1.947352 4.619204-3.969405 6.857175-5.966898 0.51677-0.314155 0.841158-0.696872 1.347694-1.105171 2.332115-2.071172 4.811586-4.113691 7.324826-6.207375 0.468674-0.483001 1.083681-0.939395 1.635243-1.419326 2.384303-2.044566 4.860704-4.091178 7.373944-6.161327 0.098237-0.068562 0.230244-0.166799 0.325411-0.265036 28.737508-23.890107 62.528102-49.965995 107.410312-71.571059 6.351662-3.128247 14.326287-6.592139 21.277606-9.574053 8.91402-3.778046 16.193821-6.664793 16.193821-6.664793 1.863441-0.505513 3.727904-0.988514 5.641487-1.394766 4.811586-0.989537 9.56382-1.638313 14.228049-1.974981 0.939395-0.095167 1.818415-0.143263 2.708692-0.192382l0-0.165776c0.841158 0 1.683339-0.049119 2.476401-0.049119 0.829901 0 1.671059 0.049119 2.562359 0.049119 0.841158 0 1.731434-0.049119 2.562359-0.049119 0.795109 0 1.63729 0.049119 2.430352 0.049119l0 0.165776c0.939395 0.050142 1.814322 0.098237 2.753717 0.192382 4.620227 0.336668 9.419534 0.985444 14.182001 1.974981 1.864464 0.406253 3.777023 0.889253 5.593392 1.394766 0 0 7.324826 2.885723 16.287965 6.664793 6.906294 2.981914 14.892175 6.446829 21.182438 9.574053 44.980447 21.605064 78.718853 47.681976 107.506503 71.571059 0.097214 0.098237 0.229221 0.195451 0.323365 0.265036 2.514263 2.070148 4.943592 4.116761 7.374968 6.161327 0.554632 0.479931 1.119497 0.936325 1.63729 1.419326 2.464121 2.094708 4.894474 4.136204 7.324826 6.207375 0.419556 0.408299 0.830925 0.744967 1.299599 1.105171 2.285043 1.997494 4.619204 4.019547 6.904247 5.966898 0.239454 0.240477 0.468674 0.430812 0.696872 0.649799 2.38328 2.117221 4.814656 4.256954 7.097652 6.30152 0.468674 0.434905 0.940418 0.792039 1.359974 1.226944 2.367931 2.094708 4.705162 4.184299 7.0383 6.305613 0.14224 0.165776 0.372483 0.310062 0.51677 0.505513 2.236947 1.992377 4.425799 4.016477 6.626931 6.061043 0.277316 0.287549 0.554632 0.552585 0.928139 0.842181 2.200108 2.044566 4.389984 4.112668 6.577812 6.158257 0.327458 0.36225 0.699941 0.698918 1.071402 1.083681 6.67605 6.279007 13.065574 12.582573 19.22383 18.789948 11.714809 11.860119 22.638603 23.695678 32.623002 35.650965-0.050142 0.050142-0.193405 0.050142-0.287549 0.098237l0.373507 0c8.682753 10.344602 16.802688 20.715811 24.224728 31.060413 14.230096 19.970844 26.405393 41.428551 36.534078 64.404846l0 0c1.200338 2.837628 2.464121 5.774517 3.63069 8.661264 1.071402 2.670829 2.153036 5.365194 3.222391 8.036024 0.098237 0.360204 0.278339 0.74599 0.470721 1.12973 0.926092 2.552126 1.913583 5.220908 2.886747 7.866155 0.192382 0.433882 0.325411 0.889253 0.565888 1.324158 0.926092 2.695389 1.865487 5.366218 2.741437 8.060583 0.146333 0.385786 0.2415 0.74599 0.385786 1.12973 1.950422 5.728468 3.825119 11.622712 5.547343 17.587564 0.048095 0.26606 0.191358 0.553609 0.275269 0.844228 0.841158 2.886747 1.685385 5.819542 2.52859 8.755408 0.096191 0.433882 0.227174 0.793062 0.324388 1.276063 0.792039 2.934842 1.539053 5.870708 2.381234 8.901741 0.049119 0.336668 0.132006 0.648776 0.227174 0.985444 1.781576 6.857175 3.402493 13.762445 4.991688 20.86112 3.551896 16.454764 6.630001 34.183544 9.239432 53.095265l0 0.214894c0.324388 2.286066 0.565888 4.618181 0.939395 7.003508 0 0.189312 0.048095 0.430812 0.048095 0.672312 0.324388 2.188852 0.551562 4.377704 0.828878 6.615675 0.049119 0.36225 0.049119 0.697895 0.147356 1.034563 0.274246 2.142803 0.51677 4.234441 0.74292 6.377244 0 0.479931 0.147356 0.88823 0.147356 1.370207 0.227174 2.045589 0.468674 4.042059 0.698918 6.110161 0 0.603751 0.094144 1.106194 0.094144 1.660826 0.227174 1.973958 0.423649 4.018523 0.599657 6.037507 0.147356 0.554632 0.147356 1.204431 0.242524 1.75804 0.132006 2.068102 0.372483 4.114714 0.554632 6.15928 0.048095 0.600681 0.095167 1.177825 0.143263 1.778506 0.227174 2.622734 0.505513 5.26798 0.648776 7.940856 0.098237 0.217964 0.098237 0.456395 0.098237 0.648776 0.046049 5.966898 2.238994 38.541805 3.547803 57.524135l0.324388 0c0.182149 4.377704 0.373507 8.877181 0.554632 13.352099l0 0.313132 0 0c1.408069 38.975686 2.201132 82.0886 2.381234 129.48098C905.001257 560.83154 905.001257 567.687692 905.001257 574.642081L905.001257 574.642081 905.001257 574.642081zM839.859631 179.81985c-18.6078-15.398712-30.419823-14.074553-89.579201-63.224973-14.879895-12.366655-27.29567-11.234879-39.381939-7.916297-6.340405 1.759063-12.922311 3.875261-19.730367 6.281053l0.085958 0.047072c-46.987151 17.274432-95.692433 38.5899-145.289014 65.945945-5.604648-5.099135-11.150968-10.224876-16.660448-16.337083-56.366775-50.906413-122.854049-79.462796-198.673875-84.541465l-11.990079 0c-8.350179 1.010003-15.725146 1.010003-23.975041 1.998517-29.628808 4.114714-54.599526 14.288424-74.894757 29.590945-28.603455 21.412682-43.436278 51.964512-42.547025 91.734284-0.890276 34.668591 12.967336 63.178925 40.682561 84.542488 25.89988 19.414165 59.113329 29.568433 97.94166 29.568433 42.497906 1.034563 99.841939-16.312524 171.883719-50.930973 10.129708-5.148253 38.542828-15.276938 33.225729-13.256932 30.552853 40.730657 49.969065 84.541465 61.023842 130.396839l-238.418065-0.964978 0 29.522384 112.724341 1.034563 0 66.25703L298.343387 479.566702l0 28.557406 157.943218 0L456.286606 562.105556c0 10.152221 12.031011 15.303544 36.954657 15.303544l41.571814-1.083681 0-68.204381 163.585729 0 0-28.557406-163.585729 0 0-66.25703 129.421628 0c-6.529717-67.291592-32.335453-128.398322-75.771731-185.467085 27.719318-9.286504 120.472815-43.016723 132.140553-44.605917 31.024597-4.015454 111.801319 7.003508 120.942513 7.698333C848.680531 191.438469 843.879178 183.090337 839.859631 179.81985L839.859631 179.81985 839.859631 179.81985z"  horiz-adv-x="1024" />

    
    <glyph glyph-name="liebiao1" unicode="&#59369;" d="M296.288 482.304l441.696 0 0-76.416-441.696 0 0 76.416ZM296.288 329.408l441.696 0 0-76.448-441.696 0 0 76.448ZM296.288 176.544l441.696 0 0-76.448-441.696 0 0 76.448ZM810.24-180.256 224-180.256c-77.312 0-140.128 62.88-140.128 140.16L83.872 622.464c0 77.344 62.88 140.16 140.128 140.16l586.24 0c77.312 0 140.128-62.88 140.128-140.16l0-662.56C950.368-117.376 887.552-180.256 810.24-180.256zM224 686.208c-35.168 0-63.712-28.608-63.712-63.744l0-662.56c0-35.168 28.576-63.712 63.712-63.712l586.24 0c35.168 0 63.712 28.576 63.712 63.712L873.952 622.464c0 35.168-28.576 63.744-63.712 63.744L224 686.208z"  horiz-adv-x="1024" />

    
    <glyph glyph-name="iconfontadd" unicode="&#59170;" d="M517.435 715.833c-230.807 0-417.914-187.106-417.914-417.914s187.106-417.914 417.914-417.914S935.348 67.112 935.348 297.92 748.242 715.833 517.435 715.833zM648.806 261.382l-79.965 0 0-79.965c0-28.274-23.133-51.406-51.406-51.406-28.274 0-51.406 23.133-51.406 51.406l0 79.965-79.965 0c-28.274 0-51.406 23.133-51.406 51.406 0 28.274 23.133 51.406 51.406 51.406l79.965 0L466.029 444.16c0 28.274 23.133 51.406 51.406 51.406 28.274 0 51.406-23.133 51.406-51.406l0-79.965 79.965 0c28.274 0 51.406-23.133 51.406-51.406C700.213 284.515 677.08 261.382 648.806 261.382z"  horiz-adv-x="1024" />

    
    <glyph glyph-name="bumen1" unicode="&#59210;" d="M935.253333 760.8 88.746667 760.8C40.96 760.8 0 719.84 0 672.053333l0-696.32c0-47.786667 40.96-88.746667 88.746667-88.746667l846.506667 0c47.786667 0 88.746667 40.96 88.746667 88.746667L1024 672.053333C1024 719.84 983.04 760.8 935.253333 760.8zM252.586667 74.72 129.706667 74.72 129.706667 197.6l122.88 0L252.586667 74.72zM252.586667 265.866667 129.706667 265.866667l0 119.466667 122.88 0L252.586667 265.866667zM252.586667 453.6 129.706667 453.6 129.706667 573.066667l122.88 0L252.586667 453.6zM894.293333 122.506667 293.546667 122.506667l0 23.893333 604.16 0L897.706667 122.506667zM894.293333 310.24 293.546667 310.24 293.546667 334.133333l604.16 0L897.706667 310.24zM894.293333 497.973333 293.546667 497.973333 293.546667 521.866667l604.16 0L897.706667 497.973333z"  horiz-adv-x="1024" />

    
    <glyph glyph-name="xiazai1" unicode="&#59014;" d="M547.072-102.432 547.072 362.907733 512.938667 362.907733 512.938667-102.397867 389.9392 20.6016 365.806933-3.530667 530.0224-167.729067 694.203733-3.530667 670.071467 20.6016ZM837.6832 499.867733c0.068267 2.730667 0.392533 5.358933 0.392533 8.106667 0 146.107733-118.4256 264.533333-264.533333 264.533333-105.2672 0-195.908267-61.627733-238.472533-150.6304-18.432 9.2672-39.168 14.592-61.166933 14.592-67.566933 0-123.528533-49.169067-134.468267-113.629867C58.9824 495.242667 1.024 419.108267 1.024 329.2352c0-113.0496 91.630933-204.680533 204.629333-204.782933l204.885333 0 0 34.133333L205.687467 158.5856c-94.037333 0.1024-170.530133 76.629333-170.530133 170.6496 0 72.840533 46.370133 137.659733 115.370667 161.3312l19.2 6.570667 3.362133 20.002133c8.362667 49.373867 50.773333 85.1968 100.829867 85.1968 15.940267 0 31.368533-3.703467 45.806933-10.973867l31.1296-15.633067 15.0016 31.402667c38.161067 79.735467 119.7056 131.2256 207.701333 131.2256 127.061333 0 230.4-103.338667 230.4-230.4 0-0.699733-0.068267-1.4336-0.136533-2.133333-0.1024-1.706667-0.2048-3.396267-0.238933-5.137067l-0.8704-34.833067 34.8672-0.136533c84.4288-0.238933 153.1392-69.137067 153.1392-153.582933 0-84.206933-68.573867-153.105067-152.797867-153.531733l-7.4752-0.034133L649.472 158.568533l0-34.133333 188.6208 0 0 0.034133c103.236267 0.529067 186.760533 84.3264 186.760533 187.665067C1024.853333 415.677867 941.124267 499.5776 837.6832 499.867733z"  horiz-adv-x="1025" />

    
    <glyph glyph-name="zujiandingyi" unicode="&#59211;" d="M406.231071 584.658202 238.307547 19.269247 785.565563 19.269247l170.010045 565.388954L406.231071 584.658202zM777.956258 29.502309 252.021897 29.502309l161.845085 544.92283 527.945157 0L777.956258 29.502309zM86.062098 573.976932 374.147352 573.976932 374.147352 584.209994 86.062098 584.209994 77.287247 584.209994 75.829036 584.209994 75.829036 19.269247 77.287247 19.269247 86.062098 19.269247 205.301829 19.269247 205.301829 29.502309 86.062098 29.502309ZM452.759781 201.627529l-0.972141-0.967024-20.400632-63.049988 64.791655 18.723434 265.874393 265.676895-44.413536 44.306088L452.759781 201.627529zM490.944452 165.562125l-0.561795-0.174985-28.803 30.586622L717.609845 451.844314l29.971615-29.80277L490.944452 165.562125z"  horiz-adv-x="1024" />

    
    <glyph glyph-name="chaxun2" unicode="&#59175;" d="M944.354032-96.256906 646.470621 201.626505c51.418067 59.858296 79.466889 135.283126 79.466889 215.023238 0 88.302115-34.387181 171.318854-96.825232 233.757928-62.440098 62.439074-145.456836 96.825232-233.758951 96.825232s-171.318854-34.387181-233.757928-96.825232c-62.439074-62.439074-96.825232-145.455813-96.825232-233.757928 0-88.303138 34.387181-171.318854 96.825232-233.757928 62.439074-62.440098 145.455813-96.826256 233.757928-96.826256 73.129554 0 142.620231 23.605627 199.812815 67.178005l299.343669-299.343669L944.354032-96.256906zM95.469352 416.650767c0 165.357072 134.526903 299.883975 299.883975 299.883975S695.238324 582.006815 695.238324 416.650767c0-165.357072-134.527926-299.884998-299.884998-299.884998S95.469352 251.292672 95.469352 416.650767z"  horiz-adv-x="1024" />

    
    <glyph glyph-name="bianji3" unicode="&#59261;" d="M250.487961 30.469334 451.66996 116.120063 328.172251 237.626417ZM848.057849 504.54049 720.576409 636.00566 351.07896 271.488643 483.539808 134.047364ZM953.081811 661.791953c0 0-33.744545 37.346583-72.585155 65.729004s-68.717058 0-68.717058 0l-65.729004-65.729004 133.450385-132.953058c0 0 56.268538 56.766888 73.580832 76.18617C970.394105 624.44537 953.081811 661.791953 953.081811 661.791953zM810.958906-38.370521c0-9.215896-7.471159-16.687054-16.687054-16.687054l-622.190635 0c-9.215896 0-16.687054 7.471159-16.687054 16.687054L155.394163 578.896988c0 9.215896 7.471159 16.687054 16.687054 16.687054l395.560034 0 82.390475 87.663572L87.35658 683.247614c-11.120268 0-20.134573-9.014304-20.134573-20.134573l0-785.700639c0-11.120268 9.014304-20.134573 20.134573-20.134573l791.640931 0c11.120268 0 20.134573 9.014304 20.134573 20.134573L899.132084 438.585335l-88.171132-81.838913L810.960952-38.370521z"  horiz-adv-x="1024" />

    
    <glyph glyph-name="tianjia3" unicode="&#59221;" d="M961.997366 226.82849 588.215334 226.82849l0-373.783055L438.705182-146.954565l0 373.783055L64.922127 226.82849 64.922127 376.338642l373.783055 0L438.705182 750.122721l149.510152 0 0-373.784078 373.782032 0L961.997366 226.82849 961.997366 226.82849zM961.997366 226.82849"  horiz-adv-x="1024" />

    
    <glyph glyph-name="iconshanchu" unicode="&#59036;" d="M511.477602 620.008314c-176.642093 0-319.838446-143.196353-319.838446-319.838446 0-176.641069 143.196353-319.838446 319.838446-319.838446 176.642093 0 319.838446 143.198399 319.838446 319.838446C831.316048 476.811961 688.119695 620.008314 511.477602 620.008314zM670.815587 186.221654l-44.861744-44.861744L512.17652 255.137233 398.399197 141.360933l-44.862767 44.861744 113.778346 113.777323L353.53643 413.7763l44.862767 44.862767 113.777323-113.778346L625.953843 458.639067l44.861744-44.862767L557.039287 299.998977 670.815587 186.221654z"  horiz-adv-x="1024" />

    
    <glyph glyph-name="shanchu8" unicode="&#59171;" d="M786.511097 595.27398c-152.516626 152.517649-399.859967 152.517649-552.373523 0-152.517649-152.512533-152.517649-399.855874 0-552.373523 152.513556-152.517649 399.856897-152.517649 552.373523 0C939.02977 195.418107 939.02977 442.706189 786.511097 595.27398L786.511097 595.27398zM649.312342 112.326667 510.515183 251.121779 371.72007 112.326667l-68.156286 68.156286 138.796136 138.79716L303.563784 458.079318l68.156286 68.156286 138.796136-138.79716L649.312342 526.235604l68.160379-68.156286L578.730821 319.279089l138.79716-138.79716L649.312342 112.326667 649.312342 112.326667zM649.312342 112.326667"  horiz-adv-x="1024" />

    
    <glyph glyph-name="bianji4" unicode="&#59172;" d="M652.224 749.696l-430.080-430.528 225.216-225.216 430.272 430.336-225.408 225.408zM96-32l269.568 72.064-193.088 193.088-76.48-265.152zM448-160h128v128h-128v-128zM640-160h128v128h-128v-128zM832-32v-128h128v128h-128z"  horiz-adv-x="1024" />

    
    <glyph glyph-name="tianjia4" unicode="&#59173;" d="M960 352h-384v384h-128v-384h-384v-128h384v-384h128v384h384z"  horiz-adv-x="1024" />

    
    </font>
</defs>
</svg>
